<svg width="40" height="54" viewBox="0 0 40 54" fill="none" xmlns="http://www.w3.org/2000/svg">
<g clip-path="url(#clip0_29_243)">
<path d="M24.3983 5.09634C24.0476 4.40403 23.4852 3.84162 22.7929 3.49084C22.4443 3.31559 22.0727 3.19017 21.6891 3.11824C21.2952 3.0466 20.8961 3.00704 20.4957 2.99994C20.1281 2.98854 19.641 2.99994 19.2541 2.99994H6.53044C6.36544 2.99994 6.20284 2.99994 6.04144 3.00044C5.42861 2.98256 4.81544 3.022 4.20994 3.11824C3.82634 3.19023 3.45472 3.31565 3.10594 3.49084C2.41398 3.84192 1.85181 4.40426 1.50094 5.09634C1.32583 5.44501 1.20041 5.81648 1.12834 6.19994C1.06797 6.52394 1.0312 6.85191 1.01834 7.18124C1.00274 7.50644 1.00074 7.85894 1.00024 8.19404V8.63494V44.3509C1.00024 44.4998 1.00024 44.6468 1.00024 44.7918C1.00024 45.1269 1.00274 45.4794 1.01834 45.8047C1.03122 46.1341 1.06798 46.462 1.12834 46.786C1.2004 47.1696 1.32582 47.5412 1.50094 47.8899C1.85187 48.5821 2.41419 49.1445 3.10634 49.4955C3.45513 49.6707 3.82674 49.7961 4.21034 49.868C4.60428 49.9398 5.00339 49.9794 5.40374 49.9865C5.77114 49.9979 6.25844 49.9965 6.64544 49.9965C11.3664 49.9965 12.991 49.9999 17.7119 49.9999C17.5936 49.8999 17.4919 49.7614 17.3419 49.6376C17.1447 49.4323 16.9659 49.21 16.8078 48.9731C16.6154 48.6929 16.4649 48.386 16.3611 48.0622C16.2562 47.7299 16.1751 47.3906 16.1184 47.0467C16.0625 46.7492 16.0287 46.448 16.0173 46.1454C16.0026 45.8465 16.0007 45.523 16.0002 45.2154C16.0002 45.0807 16.0002 44.9448 16.0002 44.8068V11.1931C16.0002 11.0551 16.0002 10.9193 16.0002 10.7847C16.0002 10.4769 16.0026 10.1533 16.0173 9.85474C16.029 9.55221 16.0628 9.25094 16.1184 8.95334C16.1846 8.6005 16.2999 8.25869 16.4611 7.93794C16.7838 7.30113 17.3012 6.78379 17.9379 6.46104C18.2588 6.29985 18.6007 6.18449 18.9536 6.11834C19.5048 6.02721 20.0633 5.98787 20.6218 6.00084C20.7829 5.99994 20.9459 5.99994 21.1115 5.99994H24.865M11.3349 9.68074C11.3349 9.94464 11.3349 10.1283 11.3344 10.2819C11.3339 10.4329 11.3324 10.558 11.3285 10.6729C11.3235 10.8981 11.2981 11.1223 11.2528 11.3429C11.2046 11.5733 11.1247 11.7958 11.0153 12.0041C10.7881 12.4353 10.4357 12.7876 10.0045 13.0149C9.79614 13.1241 9.57368 13.2041 9.34344 13.2525C9.12283 13.2978 8.89859 13.3231 8.67344 13.3281C8.55844 13.3321 8.43344 13.3335 8.28234 13.3339C8.12874 13.3346 7.94494 13.3345 7.68104 13.3345H6.31924C6.05534 13.3345 5.87154 13.3345 5.71794 13.3339C5.56684 13.3339 5.44184 13.3321 5.32684 13.3281C5.1017 13.3231 4.87746 13.2978 4.65684 13.2525C4.42661 13.2041 4.20415 13.1241 3.99574 13.0149C3.56459 12.7876 3.21223 12.4353 2.98494 12.0041C2.8756 11.7958 2.79567 11.5733 2.74744 11.3429C2.70214 11.1223 2.67681 10.8981 2.67174 10.6729C2.66784 10.558 2.66634 10.4329 2.66584 10.2819C2.66534 10.1282 2.66534 9.94464 2.66534 9.68074V8.31914C2.66534 8.05514 2.66534 7.87154 2.66584 7.71794C2.66584 7.56674 2.66784 7.44164 2.67174 7.32684C2.67681 7.10169 2.70215 6.87745 2.74744 6.65684C2.79583 6.42657 2.87575 6.20407 2.98494 5.99564C3.21214 5.56445 3.56433 5.21198 3.99534 4.98444C4.20375 4.87524 4.42621 4.79528 4.65644 4.74684C4.87706 4.70163 5.1013 4.67632 5.32644 4.67124C5.44144 4.66724 5.56644 4.66594 5.71754 4.66534H6.31884H7.68064H8.28194C8.43304 4.66594 8.55804 4.66724 8.67284 4.67124C8.89819 4.67629 9.12263 4.70159 9.34344 4.74684C9.57368 4.79528 9.79614 4.87524 10.0045 4.98444C10.4356 5.21181 10.788 5.56414 11.0153 5.99524C11.1247 6.20361 11.2046 6.42613 11.2528 6.65644C11.2981 6.87705 11.3235 7.10129 11.3285 7.32644C11.3324 7.44134 11.3339 7.56644 11.3344 7.71754C11.3349 7.87124 11.3349 8.05484 11.3349 8.31874V9.68074ZM35.9999 24.3079V45.6918C35.9655 46.069 35.7842 46.4176 35.4951 46.6623C35.206 46.907 34.8323 47.0283 34.4545 46.9999H21.5453C21.1676 47.0283 20.7939 46.907 20.5048 46.6623C20.2157 46.4176 20.0344 46.069 19.9999 45.6918V24.313C20.0345 23.9344 20.2164 23.5846 20.5066 23.3389C20.7967 23.0933 21.1718 22.9715 21.5509 22.9999H34.4547C34.8324 22.9716 35.2061 23.0928 35.4952 23.3375C35.7843 23.5822 35.9655 23.9308 35.9999 24.3079V24.3079ZM38.9999 11.8213C38.9994 11.5135 38.9977 11.1899 38.9833 10.8913C38.9714 10.5888 38.9375 10.2876 38.8819 9.98994C38.8158 9.6371 38.7004 9.29529 38.5392 8.97454C38.2163 8.3379 37.6991 7.82063 37.0624 7.49774C36.7416 7.33644 36.3997 7.22105 36.0467 7.15494C35.6844 7.08892 35.3174 7.05247 34.9491 7.04594C34.6109 7.03594 34.1627 7.03674 33.8067 7.03674H22.0867C21.9211 7.03674 21.7581 7.03674 21.5967 7.03754C21.0382 7.02449 20.4797 7.06379 19.9285 7.15494C19.5756 7.22108 19.2337 7.33647 18.9128 7.49774C18.276 7.82034 17.7587 8.33759 17.4359 8.97434C17.2747 9.29516 17.1594 9.63703 17.0932 9.98994C17.0376 10.2875 17.0038 10.5888 16.9921 10.8913C16.9774 11.1901 17.0006 11.5137 17.0001 11.8213V12.2298V44.8066V45.2152C17.0001 45.523 16.9774 45.8465 16.9921 46.1452C17.0038 46.4477 17.0376 46.749 17.0932 47.0465C17.1594 47.3994 17.2747 47.7413 17.4359 48.062C17.7586 48.6988 18.276 49.2162 18.9127 49.5389C19.2336 49.7 19.5755 49.8154 19.9284 49.8816C20.2908 49.9477 20.658 49.9841 21.0263 49.9905C21.3642 50.001 21.8124 49.9996 22.1684 49.9996H33.8884H34.3784C34.9369 50.0126 35.4953 49.9732 36.0463 49.8821C36.3993 49.8159 36.7412 49.7006 37.062 49.5394C37.6987 49.2165 38.2159 48.6992 38.5388 48.0625C38.7001 47.7418 38.8154 47.3999 38.8815 47.047C38.9371 46.7495 38.971 46.4482 38.9829 46.1457C38.9973 45.8468 38.999 45.5233 38.9995 45.2157C38.9995 45.081 38.9995 44.9451 38.9995 44.8071V12.2299C38.9999 12.0918 38.9999 11.956 38.9999 11.8213V11.8213ZM18.6642 11.7047C18.6649 11.5541 18.6661 11.4294 18.67 11.3147C18.6751 11.0903 18.7002 10.8668 18.7452 10.6468C18.7937 10.4174 18.8735 10.1957 18.9823 9.98804C19.2085 9.55859 19.5595 9.2077 19.9889 8.98154C20.1966 8.87271 20.4182 8.79303 20.6476 8.74474C20.8676 8.69968 21.0912 8.67448 21.3156 8.66944C21.4298 8.66554 21.5544 8.66424 21.705 8.66364C21.8581 8.66304 22.0412 8.66364 22.3041 8.66364H23.6957H24.151C24.2975 8.66364 24.4594 8.66364 24.6064 8.66734C24.9103 8.66813 25.2128 8.70697 25.507 8.78294C25.8417 8.87271 26.1532 9.0334 26.4203 9.25414C26.6874 9.47487 26.9039 9.75047 27.0551 10.0622C27.1973 10.3631 27.2841 10.6872 27.3112 11.0188C27.3266 11.1769 27.3322 11.3352 27.3344 11.5188C27.3366 11.6866 27.3361 11.9483 27.3361 12.3039V13.6966C27.3361 13.9594 27.3361 14.1424 27.3356 14.2954C27.3349 14.4459 27.3336 14.5706 27.3297 14.6849C27.3247 14.9094 27.2994 15.1329 27.2543 15.3528C27.2062 15.5823 27.1266 15.804 27.0177 16.0116C26.7912 16.4411 26.4402 16.7921 26.0106 17.0186C25.803 17.1274 25.5814 17.2071 25.352 17.2553C25.1321 17.3004 24.9085 17.3255 24.684 17.3305C24.5697 17.3345 24.445 17.3359 24.2946 17.3364C24.1413 17.337 23.9584 17.3364 23.6955 17.3364H22.3041C21.9484 17.3364 21.6867 17.3364 21.519 17.3347C21.3354 17.3324 21.1772 17.3268 21.019 17.3115C20.6873 17.2845 20.3632 17.1977 20.0624 17.0553C19.8203 16.9381 19.5995 16.7811 19.4091 16.5909C19.1097 16.2904 18.8939 15.9168 18.7831 15.5072C18.7072 15.213 18.6683 14.9105 18.6674 14.6066C18.6637 14.4597 18.6637 14.2978 18.6637 14.1512C18.6637 13.9996 18.6637 13.8483 18.6637 13.6962V12.3035C18.6637 12.0406 18.6635 11.8576 18.664 11.7047H18.6642ZM36.9999 45.6918C36.967 46.3349 36.6806 46.9387 36.2036 47.3713C35.7266 47.8038 35.0978 48.0298 34.4545 47.9999H21.5453C20.9021 48.0298 20.2732 47.8038 19.7962 47.3713C19.3192 46.9387 19.0329 46.3349 18.9999 45.6918V24.313C19.033 23.6686 19.3199 23.0634 19.798 22.6299C20.2761 22.1965 20.9063 21.97 21.5509 21.9999H34.4547C35.0979 21.9701 35.7267 22.1961 36.2037 22.6286C36.6807 23.0611 36.967 23.6649 36.9999 24.3079V45.6918Z" fill="white"/>
</g>
<defs>
<clipPath id="clip0_29_243">
<rect width="40" height="54" fill="white"/>
</clipPath>
</defs>
</svg>
