<svg width="56" height="56" viewBox="0 0 56 56" fill="none" xmlns="http://www.w3.org/2000/svg">
<path d="M24.9501 4.14062C19.4588 4.80927 14.5756 6.91038 10.3257 10.444C8.24869 12.1632 6.04005 14.7297 4.55941 17.1416C3.29381 19.2186 2.04053 22.1435 1.41949 24.5431C-0.932506 33.5804 1.63453 43.6682 7.94965 50.2342C9.03605 51.3565 9.56133 51.6309 10.3733 51.4757C11.4121 51.2848 12.3793 50.0791 12.3793 48.9927C12.3793 48.3005 12.2717 48.1213 10.9585 46.6889C8.59477 44.1224 6.69637 40.5406 5.78917 36.9712C5.14461 34.4159 4.96541 30.6913 5.35965 28.1243C7.47253 14.5387 20.6286 5.88334 33.904 9.34526C40.1833 10.981 45.5201 15.3261 48.4685 21.1999C52.9093 30.0462 51.2382 40.4325 44.2186 47.6431C43.3708 48.5145 43.1563 48.8964 43.1563 49.5292C43.168 50.4605 44.1234 51.6303 45.0905 51.8812C45.986 52.1321 46.392 51.917 47.8127 50.4722C51.5854 46.6284 54.0561 41.7693 55.119 36.1222C55.4651 34.2597 55.5485 30.1291 55.2859 28.028C54.8917 24.9368 54.0561 22.2152 52.6472 19.3497C51.1548 16.3055 49.5196 14.0728 47.0841 11.709C42.6669 7.44686 37.0321 4.79694 30.9556 4.14006C29.6065 3.98494 26.1681 3.99726 24.9501 4.14062Z" fill="#4581F5"/>
<path d="M25.3921 11.5539C22.3479 11.9358 18.9453 13.2848 16.259 15.195C14.9817 16.0904 12.7254 18.3584 11.8059 19.6481C8.29583 24.5666 7.12599 30.4763 8.53495 36.2303C9.29879 39.3344 10.6361 41.9367 12.7489 44.4556C13.9188 45.8645 14.4922 46.1748 15.4588 45.9121C16.4377 45.6495 17.3572 44.4796 17.3689 43.4884C17.3689 42.9032 17.2855 42.7481 16.1873 41.4349C14.0862 38.8802 12.8805 35.9912 12.6179 32.8512C11.9493 24.9244 17.1427 17.9401 24.9261 16.2926C26.5261 15.9465 29.4745 15.9224 30.9193 16.2327C34.2384 16.9624 36.6856 18.2873 38.99 20.5912C41.7956 23.4203 43.2639 26.7512 43.4666 30.7507C43.6817 34.8454 42.201 38.8684 39.3478 42.0084C38.5241 42.9156 38.3807 43.2023 38.3807 43.8944C38.3807 45.0402 39.5864 46.27 40.7086 46.27C41.3655 46.27 41.8426 46.0073 42.6429 45.1836C45.0665 42.6764 46.905 39.1311 47.7165 35.406C47.9433 34.3078 47.9791 33.8184 47.9791 31.4664C47.9791 28.458 47.8357 27.4551 47.0243 25.032C44.6605 17.9295 38.3096 12.6526 30.8599 11.5897C29.4868 11.3988 26.7769 11.3752 25.3921 11.5539Z" fill="#4581F5"/>
<path d="M25.547 19.0512C22.789 19.6481 20.7237 20.8062 18.8259 22.8116C16.5455 25.2353 15.4356 28.0045 15.4115 31.3477C15.3998 33.1385 15.5431 34.1057 16.0802 35.6457C16.7007 37.4125 18.1337 39.6928 18.9575 40.194C20.0915 40.8744 21.8583 40.003 22.2643 38.5582C22.4793 37.8179 22.3477 37.3643 21.6555 36.4213C20.3899 34.7021 19.9487 33.2578 20.0198 31.1085C20.1032 28.8641 20.7719 27.3599 22.3835 25.7365C23.9235 24.1847 25.7861 23.4203 27.9947 23.4203C30.3227 23.4203 31.9702 24.1007 33.6177 25.7365C35.1577 27.2524 35.9221 28.8523 36.0772 30.87C36.2083 32.6009 35.6471 34.6662 34.6806 36.0035C33.5824 37.52 33.5583 37.5553 33.5583 38.1405C33.5583 39.6922 35.3251 41.0413 36.6266 40.4925C37.8446 39.9913 39.6114 37.1375 40.3159 34.5352C40.5427 33.6997 40.5785 33.2461 40.5903 31.4669C40.5903 29.5691 40.5544 29.2706 40.2677 28.2436C38.9903 23.6594 35.6477 20.3885 30.9795 19.1464C29.6299 18.7886 26.9677 18.7409 25.547 19.0512Z" fill="#4581F5"/>
<path d="M26.6816 26.3099C25.7386 26.5608 25.01 26.9785 24.3061 27.6707C23.148 28.8165 22.6944 29.9986 22.7661 31.7061C22.8019 32.6732 22.8618 32.9593 23.1838 33.6403C24.2585 35.9324 26.6581 37.1739 29.0454 36.6727C30.1435 36.4459 30.9914 35.9923 31.7793 35.2161C33.8563 33.1626 33.8686 29.8317 31.791 27.7306C31.0389 26.9668 30.0001 26.4174 28.9619 26.2147C28.09 26.0473 27.6006 26.0708 26.6816 26.3099Z" fill="#4581F5"/>
</svg>
