<svg width="56" height="56" viewBox="0 0 56 56" fill="none" xmlns="http://www.w3.org/2000/svg">
<g clip-path="url(#clip0_29_306)">
<path fill-rule="evenodd" clip-rule="evenodd" d="M28 52C41.2548 52 52 41.2548 52 28C52 14.7452 41.2548 4 28 4C14.7452 4 4 14.7452 4 28C4 41.2548 14.7452 52 28 52ZM28 56C43.464 56 56 43.464 56 28C56 12.536 43.464 0 28 0C12.536 0 0 12.536 0 28C0 43.464 12.536 56 28 56Z" fill="#053B7B"/>
<path fill-rule="evenodd" clip-rule="evenodd" d="M52 28C52 15.4185 42.3187 5.09813 29.9994 4.08212C28.8986 3.99133 28 3.10459 28 2.00002V2.00002C28 0.89545 28.8966 -0.00742979 29.9983 0.0713577C30.6696 0.119365 31.3373 0.191442 32 0.28709C37.9472 1.14541 43.5001 3.90209 47.799 8.20103C53.05 13.4521 56 20.574 56 28C56 35.4261 53.05 42.548 47.799 47.799C43.5001 52.0979 37.9472 54.8546 32 55.7129C31.3373 55.8086 30.6696 55.8807 29.9983 55.9287C28.8965 56.0075 28 55.1046 28 54V54C28 52.8954 28.8973 52.0088 29.9981 51.918C35.6909 51.4488 40.8204 48.9928 44.6917 45.245C44.7853 45.1543 44.8783 45.0629 44.9706 44.9706C44.9986 44.9425 45.0266 44.9145 45.0544 44.8863C49.3483 40.55 52 34.5847 52 28Z" fill="#4581F5"/>
<path d="M20 24C20 21.7909 21.7909 20 24 20H32C34.2091 20 36 21.7909 36 24V32C36 34.2091 34.2091 36 32 36H24C21.7909 36 20 34.2091 20 32V24Z" fill="#4581F5"/>
</g>
<defs>
<clipPath id="clip0_29_306">
<rect width="56" height="56" fill="white"/>
</clipPath>
</defs>
</svg>
