<svg width="33" height="54" viewBox="0 0 33 54" fill="none" xmlns="http://www.w3.org/2000/svg">
<path d="M30.021 46.5V38.5C30.0186 37.7051 29.7018 36.9434 29.1397 36.3813C28.5776 35.8192 27.8159 35.5024 27.021 35.5V35.5C26.2261 35.5024 25.4644 35.8192 24.9023 36.3813C24.3402 36.9434 24.0234 37.7051 24.021 38.5V46.5C24.0234 47.2949 24.3402 48.0566 24.9023 48.6187C25.4644 49.1808 26.2261 49.4976 27.021 49.5V49.5C27.8159 49.4976 28.5776 49.1808 29.1397 48.6187C29.7018 48.0566 30.0186 47.2949 30.021 46.5V46.5ZM5.98 49.5C6.77492 49.4976 7.5366 49.1808 8.0987 48.6187C8.66079 48.0566 8.97763 47.2949 8.98 46.5V38.5C8.97763 37.7051 8.66079 36.9434 8.0987 36.3813C7.5366 35.8192 6.77492 35.5024 5.98 35.5C5.18508 35.5024 4.4234 35.8192 3.8613 36.3813C3.29921 36.9434 2.98237 37.7051 2.98 38.5V46.5C2.98237 47.2947 3.29907 48.0563 3.86095 48.6183C4.42283 49.1804 5.18425 49.4974 5.979 49.5H5.98ZM16.5 21.25C24.357 21.25 31 28.61 31 37V46.516H32.5V37C32.5 27.811 25.156 19.75 16.5 19.75C7.844 19.75 0.5 27.811 0.5 37V46.516H2V37C2 28.61 8.643 21.25 16.5 21.25Z" fill="white"/>
</svg>
