<svg width="34" height="54" viewBox="0 0 34 54" fill="none" xmlns="http://www.w3.org/2000/svg">
<g clip-path="url(#clip0_29_251)">
<path d="M28.1074 19.9238C24.9968 17.309 21.0297 15.9356 16.9683 16.0674C12.9506 15.9716 9.03342 17.33 5.93755 19.8925C7.20347 18.1514 8.86179 16.733 10.7781 15.7524C12.6945 14.7717 14.8149 14.2563 16.9676 14.248L17 14.247L17.0323 14.248C19.1904 14.2791 21.3123 14.8073 23.2331 15.7917C25.1539 16.776 26.8219 18.1901 28.1074 19.9238V19.9238ZM33.9981 29.3753C33.9958 29.2535 33.9917 29.134 33.9874 29.0147L31.8633 29.1263C31.8663 29.4018 31.8644 29.61 31.8752 29.7404C31.8902 29.9255 31.9309 29.9695 32.0826 29.9604C32.2343 29.9513 32.3671 29.9479 32.3671 29.9479C32.3671 29.9479 32.3702 30.6196 32.3702 31.3932C32.3522 31.6253 32.423 31.8555 32.5682 32.0373C32.5429 32.0234 32.5223 32.0113 32.4953 31.9966C32.143 31.8485 31.7521 31.8191 31.3817 31.9128C31.099 31.9993 30.8262 32.1149 30.5676 32.2579C30.6786 33.0116 30.52 33.7804 30.1196 34.4285C29.3756 35.9411 25.6456 43.9477 23.7964 46.5122C23.392 47.153 22.8634 47.7062 22.2416 48.1393C22.2618 48.3887 22.3004 48.6363 22.3572 48.88C22.4459 49.1565 22.6071 49.4042 22.8241 49.5972C23.0411 49.7902 23.3059 49.9215 23.5909 49.9773C25.1196 50.2283 26.5417 48.3408 27.0872 47.5349C27.6327 46.729 28.5433 45.27 30.4473 41.7572C32.0467 38.8064 33.6957 35.1736 33.6213 33.8347C33.5933 33.3993 33.4649 32.9763 33.2463 32.5987C33.1448 32.4454 33.0136 32.3141 32.8604 32.2126C32.9001 32.2222 32.9408 32.2277 32.9817 32.2289C33.1349 32.2289 33.6022 32.1298 33.6022 31.415C33.6022 30.7002 33.5853 29.8826 33.5853 29.8826C33.5853 29.8826 33.6177 29.88 33.8158 29.8707C33.9675 29.8636 34.0004 29.7837 34.0001 29.5655C33.9999 29.5085 33.9999 29.4449 33.9981 29.3753V29.3753ZM4.09215 22.0282C4.38534 21.427 4.63768 20.8066 4.84745 20.1714C6.33285 17.1632 11.0749 13.4062 16.9669 13.4062L17 13.4052L17.0326 13.4062C22.9248 13.4062 27.6665 17.1632 29.1525 20.1714C29.3621 20.8066 29.6144 21.427 29.9076 22.0282C31.0237 23.9373 31.6834 26.0787 31.8349 28.2849L33.9397 28.1743C33.771 25.5057 32.9451 22.9202 31.5354 20.648C31.2445 20.2467 30.9309 19.8623 30.5963 19.4967C29.1173 17.2447 27.1058 15.392 24.74 14.1027C22.3742 12.8134 19.7271 12.1274 17.0329 12.1052L17 12.106L16.9674 12.1052C14.2731 12.1273 11.6259 12.8133 9.26 14.1026C6.89415 15.3918 4.8827 17.2446 3.40375 19.4967C3.06887 19.8622 2.75523 20.2466 2.46435 20.648C1.05439 22.9206 0.228401 25.5066 0.0599498 28.1757L2.16475 28.2862C2.31611 26.0795 2.97577 23.9377 4.09215 22.0282V22.0282ZM11.3262 37.6219C10.2184 35.3848 8.95807 33.2266 7.55405 31.1624C7.2165 30.772 6.75912 30.5043 6.25338 30.4013C5.74763 30.2983 5.22201 30.3658 4.75865 30.5931C4.63117 30.6857 4.5104 30.7871 4.39725 30.8967C3.74635 31.6637 3.84205 32.5637 4.45325 33.8067C5.19725 35.3193 8.92715 43.3259 10.7763 45.8905C11.6939 47.1628 12.4254 47.8943 13.5663 47.7951C13.9253 47.765 14.2629 47.6123 14.5225 47.3627C14.8797 46.8898 15.0683 46.3109 15.0584 45.7183C14.969 44.8502 14.6805 44.0144 14.2153 43.2759C14.091 43.0276 11.7973 38.589 11.3262 37.6219V37.6219ZM10.1412 46.5119C8.29205 43.9475 4.56195 35.9409 3.81805 34.4283C3.41759 33.7802 3.25889 33.0115 3.36995 32.2577C3.11125 32.1148 2.83839 31.9991 2.55575 31.9126C2.1969 31.8251 1.8198 31.8502 1.47575 31.9846C1.58745 31.8083 1.64103 31.6015 1.62895 31.3931C1.62895 30.6194 1.63195 29.9478 1.63195 29.9478C1.63195 29.9478 1.76515 29.9509 1.91685 29.9602C2.06855 29.9695 2.10895 29.9256 2.12415 29.7402C2.13475 29.6102 2.13295 29.4022 2.13585 29.1273L0.0118498 29.0157C0.00744983 29.1347 0.00324983 29.2537 0.00104983 29.375C-0.000850167 29.475 0.00104983 29.5627 0.00224983 29.6357C0.00564983 29.8013 0.0522498 29.8641 0.18375 29.8702C0.38175 29.8795 0.41435 29.8821 0.41435 29.8821C0.41435 29.8821 0.39705 30.6999 0.39705 31.4148C0.39705 32.1297 0.86445 32.2287 1.01765 32.2287C1.02765 32.2287 1.04285 32.2271 1.05675 32.226C0.912305 32.3257 0.788329 32.4521 0.69155 32.5985C0.473046 32.9761 0.344742 33.3991 0.31665 33.8345C0.24215 35.1734 1.89125 38.8062 3.49065 41.757C5.39455 45.2698 6.30495 46.7287 6.85065 47.5346C7.39635 48.3405 8.81825 50.2281 10.3469 49.9771C10.6319 49.9213 10.8966 49.79 11.1136 49.597C11.3305 49.4041 11.4918 49.1564 11.5804 48.8799C11.6373 48.6362 11.676 48.3887 11.696 48.1392C11.0743 47.7061 10.5456 47.1528 10.1412 46.512V46.5119ZM29.4846 33.8064C30.0958 32.5637 30.1915 31.6637 29.5406 30.8964C29.4274 30.7869 29.3066 30.6854 29.1791 30.5928C28.7158 30.3655 28.1901 30.298 27.6843 30.401C27.1786 30.504 26.7211 30.7717 26.3836 31.1621C24.9797 33.2263 23.7193 35.3846 22.6115 37.6216C22.1403 38.5887 19.8466 43.0273 19.7227 43.2752C19.2576 44.0137 18.9691 44.8496 18.8796 45.7177C18.8696 46.3103 19.0584 46.8892 19.4157 47.3621C19.6752 47.6118 20.0128 47.7645 20.3717 47.7945C21.5125 47.8937 22.2439 47.1623 23.1618 45.8899C25.0106 43.3256 28.7407 35.319 29.4846 33.8064V33.8064Z" fill="white"/>
</g>
<defs>
<clipPath id="clip0_29_251">
<rect width="34" height="54" fill="white"/>
</clipPath>
</defs>
</svg>
