<svg width="39" height="54" viewBox="0 0 39 54" fill="none" xmlns="http://www.w3.org/2000/svg">
<g clip-path="url(#clip0_29_248)">
<path d="M27.0329 39.8359C27.8839 40.0618 28.7617 40.1706 29.6422 40.1592V48.587C29.6154 48.9429 29.4657 49.2784 29.2188 49.5362C28.972 49.794 28.6432 49.958 28.2888 50.0001H26.7406C26.3424 49.9566 25.9749 49.7656 25.7104 49.4648C25.4459 49.164 25.3036 48.7751 25.3115 48.3746V39.1846C25.8706 39.4385 26.4456 39.6561 27.0329 39.8359V39.8359ZM25.3115 38.0888C24.0572 37.4495 22.934 36.5807 22.0001 35.5274C21.0612 34.5044 20.4952 33.1943 20.394 31.8095C20.3516 30.6336 20.6288 29.4683 21.1963 28.4375C21.6806 27.6462 22.3468 26.9819 23.1394 26.4997C23.9321 26.0176 24.8283 25.7316 25.7538 25.6654C25.7998 25.6654 25.846 25.6662 25.8926 25.6677C27.2845 25.7137 30.6477 26.0265 33.6684 30.0267C33.5051 30.0329 33.3422 30.0474 33.1804 30.0702C32.3699 30.2065 31.5975 30.5125 30.9136 30.9682C30.2297 31.4239 29.6498 32.0189 29.2119 32.7143C28.3733 34.0087 27.9429 35.5252 27.9765 37.0671C27.9844 37.2949 28.0132 37.5216 28.0624 37.7442C28.1747 38.2347 28.378 38.6998 28.6617 39.1155C28.209 39.0821 27.7609 39.003 27.3243 38.8793C26.6326 38.6719 25.9593 38.4075 25.3115 38.0888V38.0888ZM26.3771 31.7558C26.5701 31.8884 26.803 31.9504 27.0365 31.9313C27.2699 31.9122 27.4896 31.8131 27.6586 31.6509L27.7166 31.5785C27.8228 31.4655 27.9008 31.329 27.9442 31.1802C27.9877 31.0313 27.9953 30.8743 27.9665 30.7219C27.9377 30.5696 27.8733 30.4262 27.7785 30.3034C27.6837 30.1807 27.5613 30.0821 27.4212 30.0157L25.9112 29.0439C25.7007 28.8971 25.447 28.8254 25.1909 28.8402C24.9348 28.855 24.6911 28.9555 24.499 29.1256L24.4141 29.208C24.326 29.3156 24.2622 29.4409 24.2269 29.5754C24.1915 29.7099 24.1855 29.8504 24.2092 29.9874C24.2329 30.1244 24.2858 30.2547 24.3643 30.3694C24.4428 30.4842 24.545 30.5808 24.6641 30.6526L26.3771 31.7558ZM38.1115 35.9513C38.0728 36.1532 38.0203 36.3522 37.9544 36.547C37.7937 37.0091 37.5802 37.4512 37.3181 37.8644C37.0034 38.4196 36.6024 38.9211 36.1301 39.3501C35.7412 39.7367 35.2777 40.0399 34.7677 40.2414C34.2577 40.4428 33.712 40.5381 33.1639 40.5216C32.5346 40.523 31.9097 40.4164 31.3164 40.2067C31.2422 40.172 31.1841 40.1377 31.1143 40.1031C30.8324 39.9657 30.5594 39.811 30.2968 39.6399C30.0785 39.4977 29.8731 39.3367 29.683 39.1587C29.6686 39.145 29.6562 39.1312 29.6423 39.1174C29.2113 38.6952 28.915 38.1548 28.7909 37.5644C28.7603 37.4291 28.74 37.2916 28.7301 37.1533C28.5735 35.3312 29.6677 31.4299 33.3066 30.8092C33.5349 30.769 33.7662 30.7483 33.9979 30.7471C34.0653 30.7471 34.137 30.7582 34.2062 30.7624C34.4714 30.7744 34.7338 30.8223 34.9861 30.9048C35.0335 30.9213 35.075 30.9482 35.1215 30.966C35.3692 31.0584 35.609 31.1707 35.8386 31.3018C36.5779 31.728 37.1887 32.3458 37.6063 33.0901C37.8706 33.5787 38.0506 34.1084 38.1386 34.6569C38.1987 35.087 38.1895 35.524 38.1115 35.9513V35.9513ZM36.8078 35.1713C36.6591 34.6826 36.096 34.6933 35.7454 35.1713L34.003 37.5727C33.7363 38.072 33.9382 38.6777 34.4057 38.6351H34.4067C35.1408 38.4162 35.7785 37.954 36.2149 37.3245C36.6513 36.695 36.8604 35.9357 36.8078 35.1715V35.1713ZM9.35785 40.159V48.5868C9.3846 48.9428 9.53423 49.2784 9.78114 49.5362C10.028 49.794 10.3569 49.958 10.7114 50.0001H12.2595C12.6576 49.9566 13.0251 49.7656 13.2896 49.4648C13.5541 49.164 13.6964 48.7751 13.6886 48.3746V39.1846C13.1294 39.4384 12.5544 39.6558 11.9673 39.8355C11.1163 40.0615 10.2384 40.1704 9.35795 40.1592L9.35785 40.159ZM17.8036 28.4373C18.371 29.4681 18.6483 30.6334 18.6059 31.8093C18.5047 33.1942 17.9389 34.5043 17.0001 35.5274C16.0662 36.5807 14.943 37.4496 13.6888 38.0888C13.0408 38.4074 12.3675 38.6717 11.6759 38.8788C11.2383 39.0027 10.7894 39.0818 10.3359 39.1151C10.6211 38.7 10.8252 38.2347 10.9376 37.7437C10.9867 37.5211 11.0155 37.2944 11.0235 37.0666C11.0569 35.5248 10.6265 34.0086 9.78805 32.7143C9.3502 32.0189 8.77038 31.4239 8.08657 30.9682C7.40276 30.5125 6.63038 30.2065 5.82005 30.0701C5.6582 30.0473 5.49528 30.0328 5.33195 30.0266C8.35265 26.0266 11.716 25.7136 13.1079 25.6676C13.1546 25.6661 13.2005 25.6653 13.2467 25.6653C14.172 25.7316 15.0681 26.0177 15.8607 26.4998C16.6533 26.982 17.3193 27.6462 17.8037 28.4375L17.8036 28.4373ZM14.5863 29.2073L14.5014 29.1249C14.3092 28.9548 14.0655 28.8543 13.8094 28.8395C13.5533 28.8247 13.2996 28.8964 13.0892 29.0432L11.5792 30.015C11.439 30.0814 11.3166 30.18 11.2218 30.3027C11.127 30.4255 11.0626 30.5688 11.0338 30.7212C11.005 30.8736 11.0126 31.0306 11.056 31.1794C11.0995 31.3283 11.1774 31.4648 11.2837 31.5778L11.3418 31.6502C11.5107 31.8124 11.7304 31.9115 11.9638 31.9306C12.1973 31.9497 12.4302 31.8877 12.6233 31.7551L14.3371 30.6519C14.4559 30.58 14.558 30.4834 14.6364 30.3687C14.7147 30.2539 14.7675 30.1237 14.7911 29.9868C14.8147 29.8499 14.8087 29.7095 14.7734 29.5751C14.738 29.4408 14.6743 29.3156 14.5864 29.208L14.5863 29.2073ZM9.35785 39.1173C9.34395 39.1311 9.33155 39.1448 9.31715 39.1585C9.12703 39.3365 8.92164 39.4976 8.70335 39.6397C8.44067 39.8109 8.16761 39.9656 7.88575 40.1029C7.81575 40.1375 7.75795 40.1718 7.68375 40.2065C7.0904 40.4163 6.46549 40.5228 5.83615 40.5214C5.28811 40.5379 4.74244 40.4426 4.23247 40.2412C3.7225 40.0398 3.25893 39.7366 2.87005 39.3501C2.39762 38.921 1.99656 38.4194 1.68195 37.8641C1.41984 37.4509 1.2063 37.0088 1.04555 36.5467C0.979727 36.3519 0.927239 36.1529 0.888451 35.951C0.810485 35.5237 0.801336 35.0867 0.861351 34.6565C0.949482 34.1081 1.12947 33.5786 1.39375 33.0901C1.81159 32.3459 2.42245 31.7282 3.16195 31.3021C3.39131 31.1711 3.6309 31.0589 3.87835 30.9666C3.92515 30.9487 3.96685 30.9217 4.01435 30.9051C4.26672 30.8226 4.52911 30.7747 4.79435 30.7627C4.86355 30.7585 4.93515 30.7474 5.00255 30.7474C5.23432 30.7486 5.46558 30.7694 5.69385 30.8095C9.33275 31.4302 10.4271 35.3315 10.2705 37.1536C10.2605 37.292 10.2402 37.4294 10.2097 37.5647C10.0854 38.1552 9.78905 38.6956 9.35795 39.1178L9.35785 39.1173ZM4.99705 37.5727L3.25465 35.1715C2.90405 34.6935 2.34095 34.6828 2.19225 35.1715C2.14184 35.546 2.16662 35.9269 2.26512 36.2917C2.36363 36.6566 2.53389 36.9981 2.76595 37.2964C2.96262 37.6328 3.22631 37.9252 3.54066 38.1555C3.855 38.3857 4.21331 38.549 4.59335 38.6351H4.59435C5.06195 38.6777 5.26375 38.072 4.99705 37.5727V37.5727Z" fill="white"/>
</g>
<defs>
<clipPath id="clip0_29_248">
<rect width="39" height="54" fill="white"/>
</clipPath>
</defs>
</svg>
