<svg width="60" height="60" viewBox="0 0 60 60" fill="none" xmlns="http://www.w3.org/2000/svg">
<rect width="60" height="60" rx="30" transform="matrix(1 0 0 -1 0 60)" fill="black"/>
<path fill-rule="evenodd" clip-rule="evenodd" d="M15 12C13.8954 12 13 12.8954 13 14V45C13 46.1046 13.8954 47 15 47C16.1046 47 17 46.1046 17 45V14C17 12.8954 16.1046 12 15 12ZM21 19C19.8954 19 19 19.8954 19 21V39C19 40.1046 19.8954 41 21 41C22.1046 41 23 40.1046 23 39V21C23 19.8954 22.1046 19 21 19ZM25 18C25 16.8954 25.8954 16 27 16C28.1046 16 29 16.8954 29 18V41C29 42.1046 28.1046 43 27 43C25.8954 43 25 42.1046 25 41V18ZM33 19C31.8954 19 31 19.8954 31 21V39C31 40.1046 31.8954 41 33 41C34.1046 41 35 40.1046 35 39V21C35 19.8954 34.1046 19 33 19ZM37 24C37 22.8954 37.8954 22 39 22C40.1046 22 41 22.8954 41 24V37C41 38.1046 40.1046 39 39 39C37.8954 39 37 38.1046 37 37V24ZM45 16C43.8954 16 43 16.8954 43 18V41C43 42.1046 43.8954 43 45 43C46.1046 43 47 42.1046 47 41V18C47 16.8954 46.1046 16 45 16Z" fill="url(#paint0_linear_13_139)"/>
<defs>
<linearGradient id="paint0_linear_13_139" x1="51.5" y1="30" x2="8" y2="30" gradientUnits="userSpaceOnUse">
<stop stop-color="#B05252"/>
<stop offset="1" stop-color="#74D66C"/>
</linearGradient>
</defs>
</svg>
