<svg width="60" height="60" viewBox="0 0 60 60" fill="none" xmlns="http://www.w3.org/2000/svg">
<rect width="60" height="60" rx="30" transform="matrix(1 0 0 -1 0 60)" fill="black"/>
<path d="M46.3754 39.633L38.6171 32.5791C38.2504 32.2458 37.7685 32.068 37.2731 32.0833C36.7778 32.0986 36.3078 32.3058 35.9623 32.6612L31.3952 37.3581C30.2958 37.1481 28.0857 36.4592 25.8107 34.1899C23.5357 31.913 22.8468 29.6972 22.6425 28.6055L27.3357 24.0365C27.6915 23.6913 27.899 23.2212 27.9143 22.7257C27.9296 22.2302 27.7515 21.7482 27.4177 21.3817L20.3656 13.6254C20.0317 13.2577 19.5676 13.0347 19.0719 13.0037C18.5762 12.9727 18.088 13.1362 17.7108 13.4594L13.5693 17.0112C13.2393 17.3423 13.0424 17.7831 13.0158 18.2498C12.9872 18.7269 12.4413 30.0293 21.2054 38.7971C28.8511 46.4408 38.4282 47 41.0658 47C41.4513 47 41.688 46.9886 41.751 46.9847C42.2176 46.9586 42.6582 46.7608 42.9877 46.4293L46.5376 42.2859C46.8621 41.91 47.0268 41.4221 46.9965 40.9265C46.9661 40.4308 46.7433 39.9666 46.3754 39.633Z" fill="#007437"/>
</svg>
