<svg width="72" height="54" viewBox="0 0 72 54" fill="none" xmlns="http://www.w3.org/2000/svg">
<g clip-path="url(#clip0_29_254)">
<path d="M47.9999 50.0001V42.5001H50.8814C50.9746 42.7197 51.1303 42.907 51.3292 43.0387C51.5281 43.1703 51.7614 43.2405 51.9999 43.2405C52.2384 43.2405 52.4717 43.1703 52.6706 43.0387C52.8695 42.907 53.0252 42.7197 53.1184 42.5001H55.9999V49.9801L47.9999 50.0001ZM71.9999 20.5001V40.5001C71.9999 40.8979 71.8419 41.2794 71.5606 41.5607C71.2792 41.842 70.8977 42.0001 70.4999 42.0001H33.4999C33.1021 42.0001 32.7205 41.842 32.4392 41.5607C32.1579 41.2794 31.9999 40.8979 31.9999 40.5001V20.5001C31.9999 20.1023 32.1579 19.7207 32.4392 19.4394C32.7205 19.1581 33.1021 19.0001 33.4999 19.0001H70.4999C70.8977 19.0001 71.2792 19.1581 71.5606 19.4394C71.8419 19.7207 71.9999 20.1023 71.9999 20.5001ZM69.9999 21.0001H33.9999V40.0001H69.9999V21.0001ZM30.9999 40.1739C31.0009 40.4512 31.0281 40.7279 31.0812 41.0001H1.5288C1.4788 40.9973 1.4279 40.992 1.3779 40.9844C1.16765 40.9528 0.965693 40.88 0.78357 40.7703C0.601447 40.6606 0.442724 40.5161 0.316472 40.345C0.190221 40.1739 0.0989134 39.9797 0.0477681 39.7733C-0.00337721 39.5669 -0.0133582 39.3525 0.0183953 39.1423V15.7088C-0.0107224 15.4919 0.00770245 15.2713 0.072391 15.0623C0.13708 14.8532 0.246482 14.6608 0.393006 14.4983C0.539529 14.3357 0.719663 14.207 0.920905 14.1211C1.12215 14.0352 1.33968 13.9941 1.5584 14.0007H44.5699C45.5399 14.0007 45.9999 14.7599 45.9999 15.7088V18.0001H43.9999V16.0001H1.9999V39.0001H30.9999V40.1739ZM16.9999 50.0001H28.9999V41.5001H16.9999V50.0001Z" fill="white"/>
</g>
<defs>
<clipPath id="clip0_29_254">
<rect width="72" height="54" fill="white"/>
</clipPath>
</defs>
</svg>
