<svg width="30" height="54" viewBox="0 0 30 54" fill="none" xmlns="http://www.w3.org/2000/svg">
<g clip-path="url(#clip0_29_261)">
<path d="M28.689 7H1.36002C0.986078 7.03733 0.639494 7.21275 0.387995 7.49199C0.136497 7.77122 -0.00183984 8.13421 1.84823e-05 8.51V48.68C0.0026254 48.856 0.039873 49.0297 0.109634 49.1913C0.179395 49.3529 0.280303 49.4991 0.406594 49.6217C0.532886 49.7443 0.682088 49.8408 0.845678 49.9057C1.00927 49.9706 1.18404 50.0026 1.36002 50H28.69C28.8607 50.0013 29.03 49.969 29.1883 49.9049C29.3465 49.8408 29.4906 49.7461 29.6122 49.6263C29.7338 49.5065 29.8307 49.364 29.8972 49.2067C29.9638 49.0495 29.9987 48.8807 30 48.71C30 48.7 30 48.69 30 48.68V8.51C30.0123 8.13935 29.884 7.77777 29.6408 7.49774C29.3977 7.2177 29.0577 7.03991 28.689 7ZM15 8.42C15.1306 8.42 15.2582 8.45871 15.3667 8.53123C15.4752 8.60375 15.5598 8.70683 15.6098 8.82743C15.6597 8.94803 15.6728 9.08073 15.6473 9.20876C15.6219 9.33679 15.559 9.45439 15.4667 9.54669C15.3744 9.63899 15.2568 9.70185 15.1288 9.72732C15.0008 9.75278 14.868 9.73971 14.7474 9.68976C14.6268 9.63981 14.5238 9.55521 14.4512 9.44668C14.3787 9.33814 14.34 9.21054 14.34 9.08C14.34 8.90496 14.4096 8.73708 14.5333 8.61331C14.6571 8.48954 14.825 8.42 15 8.42ZM15 48.95C14.7884 48.95 14.5815 48.8872 14.4056 48.7697C14.2296 48.6521 14.0925 48.485 14.0115 48.2895C13.9305 48.094 13.9093 47.8788 13.9506 47.6713C13.9919 47.4637 14.0938 47.273 14.2434 47.1234C14.3931 46.9738 14.5837 46.8718 14.7913 46.8306C14.9988 46.7893 15.214 46.8105 15.4095 46.8914C15.605 46.9724 15.7721 47.1096 15.8897 47.2855C16.0073 47.4615 16.07 47.6684 16.07 47.88C16.0674 48.162 15.9535 48.4316 15.7531 48.6301C15.5527 48.8287 15.2821 48.94 15 48.94V48.95ZM28 46H2.00002V11H28V46Z" fill="white"/>
</g>
<defs>
<clipPath id="clip0_29_261">
<rect width="30" height="54" fill="white"/>
</clipPath>
</defs>
</svg>
