<svg width="23" height="54" viewBox="0 0 23 54" fill="none" xmlns="http://www.w3.org/2000/svg">
<g clip-path="url(#clip0_29_263)">
<path fill-rule="evenodd" clip-rule="evenodd" d="M2.3 17C1.0297 17 0 18.0308 0 19.3023V47.6976C0 48.9692 1.0297 50 2.3 50H20.7C21.9703 50 23 48.9692 23 47.6977V19.3023C23 18.0308 21.9703 17 20.7 17H2.3ZM21 47.2564C21 47.6671 20.6728 48 20.2692 48H2.7308C2.3272 48 2 47.6671 2 47.2564V19.7436C2 19.3329 2.3272 19 2.7308 19H20.2693C20.6728 19 21 19.3329 21 19.7436V47.2564Z" fill="white"/>
</g>
<defs>
<clipPath id="clip0_29_263">
<rect width="23" height="54" fill="white"/>
</clipPath>
</defs>
</svg>
