<svg width="41" height="54" viewBox="0 0 41 54" fill="none" xmlns="http://www.w3.org/2000/svg">
<g clip-path="url(#clip0_29_266)">
<path d="M32 6V5C32 4.73478 31.8946 4.48043 31.7071 4.29289C31.5196 4.10536 31.2652 4 31 4H3C2.73478 4 2.48043 4.10536 2.29289 4.29289C2.10536 4.48043 2 4.73478 2 5V47C2 47.2652 2.10536 47.5196 2.29289 47.7071C2.48043 47.8946 2.73478 48 3 48H10C10.0381 48.4101 10.1732 48.8053 10.394 49.1531C10.6148 49.5008 10.915 49.7911 11.27 50H3C2.20435 50 1.44129 49.6839 0.87868 49.1213C0.31607 48.5587 0 47.7956 0 47L0 5C0 4.20435 0.31607 3.44129 0.87868 2.87868C1.44129 2.31607 2.20435 2 3 2H31C31.7956 2 32.5587 2.31607 33.1213 2.87868C33.6839 3.44129 34 4.20435 34 5V6H32ZM38 7C38.7956 7 39.5587 7.31607 40.1213 7.87868C40.6839 8.44129 41 9.20435 41 10V47C41 47.7956 40.6839 48.5587 40.1213 49.1213C39.5587 49.6839 38.7956 50 38 50H14C13.2044 50 12.4413 49.6839 11.8787 49.1213C11.3161 48.5587 11 47.7956 11 47V10C11 9.20435 11.3161 8.44129 11.8787 7.87868C12.4413 7.31607 13.2044 7 14 7H38ZM39 10C39 9.73478 38.8946 9.48043 38.7071 9.29289C38.5196 9.10536 38.2652 9 38 9H14C13.7348 9 13.4804 9.10536 13.2929 9.29289C13.1054 9.48043 13 9.73478 13 10V47C13 47.2652 13.1054 47.5196 13.2929 47.7071C13.4804 47.8946 13.7348 48 14 48H38C38.2652 48 38.5196 47.8946 38.7071 47.7071C38.8946 47.5196 39 47.2652 39 47V10Z" fill="white"/>
</g>
<defs>
<clipPath id="clip0_29_266">
<rect width="41" height="54" fill="white"/>
</clipPath>
</defs>
</svg>
