<svg width="36" height="54" viewBox="0 0 36 54" fill="none" xmlns="http://www.w3.org/2000/svg">
<g clip-path="url(#clip0_29_268)">
<path d="M14.0793 49.4999C13.9453 49.3428 13.8236 49.1756 13.7151 48.9999H4.22118C4.14168 48.9999 3.84558 48.9999 3.76118 48.9999C3.31678 49.0172 2.87196 48.9794 2.43688 48.8872C2.10164 48.8068 1.79647 48.632 1.55748 48.3835C1.31965 48.1286 1.15807 47.8121 1.09108 47.4699C1.01361 47.0203 0.983111 46.5637 1.00008 46.1077V15.2912C1.00008 15.1946 1.00008 14.9786 1.00008 14.8793C0.97947 14.3997 1.01657 13.9194 1.11058 13.4486C1.19403 13.0878 1.38709 12.7615 1.66328 12.5147C1.80592 12.3887 1.96801 12.2866 2.14328 12.2124C2.31701 12.1402 2.49893 12.0895 2.68498 12.0615C2.92055 12.0262 3.15828 12.0072 3.39648 12.0045C3.55448 12.0007 3.73838 12.0001 3.91448 12.0001H5.19738C5.24674 11.9979 5.29621 12.0004 5.34508 12.0077C5.39371 12.0139 5.439 12.0358 5.47402 12.0701C5.50905 12.1044 5.5319 12.1492 5.53908 12.1977C5.55018 12.2502 5.54908 12.5613 5.55068 12.6077C5.55075 12.7189 5.55927 12.8299 5.57618 12.9397C5.59481 13.0482 5.63203 13.1527 5.68618 13.2485C5.77312 13.4003 5.89853 13.5265 6.04978 13.6144C6.16767 13.6813 6.29782 13.7238 6.43248 13.7393C6.5682 13.7528 6.70467 13.7571 6.84098 13.7523H12.2656C12.5167 13.7788 12.7703 13.7376 13.0001 13.633V10.9999H4.22168H3.93628C3.74538 10.9999 3.54428 11.0006 3.37218 11.0048C3.08848 11.009 2.8054 11.0323 2.52488 11.0748C2.2591 11.1159 1.99931 11.1891 1.75128 11.293C1.47698 11.4092 1.2233 11.5689 1.00008 11.7661C0.574622 12.146 0.275104 12.6466 0.141478 13.201C0.0244285 13.7568 -0.0230691 14.325 7.7643e-05 14.8925V15.2912V46.1077C-0.0181739 46.6361 0.0202116 47.1648 0.114578 47.6849C0.220647 48.2052 0.46939 48.6858 0.832978 49.0727C1.20055 49.4554 1.66883 49.7264 2.18378 49.8543C2.6999 49.9688 3.22841 50.0178 3.75678 49.9999C3.84948 49.9999 4.12558 50.0004 4.22168 49.9999H14.5801C14.4419 49.8873 14.3113 49.7657 14.1891 49.6358C14.1494 49.5929 14.1172 49.5442 14.0793 49.4999V49.4999ZM6.69848 13.0362C6.62381 13.0417 6.5491 13.0263 6.48265 12.9918C6.4162 12.9573 6.36062 12.905 6.32208 12.8408C6.28934 12.7806 6.2722 12.7131 6.2722 12.6446C6.2722 12.576 6.28934 12.5086 6.32208 12.4483C6.36064 12.3842 6.41623 12.3321 6.48266 12.2977C6.54909 12.2633 6.62377 12.248 6.69838 12.2534C6.79589 12.2625 6.88649 12.3077 6.95245 12.3801C7.0184 12.4525 7.05496 12.5469 7.05496 12.6448C7.05496 12.7428 7.0184 12.8372 6.95245 12.9096C6.88649 12.982 6.79589 13.0271 6.69838 13.0362H6.69848ZM7.93648 11.3762H11.0235C11.0565 11.3763 11.0881 11.3895 11.1115 11.4127C11.1349 11.436 11.1481 11.4676 11.1484 11.5005V11.5014V11.5199C11.1484 11.5532 11.1351 11.585 11.1116 11.6085C11.0882 11.632 11.0563 11.6452 11.0231 11.6452H7.93648C7.90326 11.6452 7.87142 11.632 7.84794 11.6085C7.82447 11.585 7.81128 11.5532 7.81128 11.5199V11.501V11.5C7.81157 11.467 7.82489 11.4355 7.84833 11.4122C7.87178 11.389 7.90346 11.3759 7.93648 11.3759V11.3762ZM36.0001 10.3915C36.0204 9.79541 35.978 9.1988 35.8736 8.61154C35.7575 8.02698 35.483 7.48556 35.0801 7.04644C34.6766 6.61622 34.1585 6.31024 33.587 6.16454C33.0169 6.03555 32.4326 5.98047 31.8485 6.00064C31.7379 6.00017 31.6267 5.99994 31.5148 5.99994H18.6661H18.3514C18.1401 5.99994 17.9176 6.00074 17.7272 6.00554C17.4135 6.00993 17.1006 6.03616 16.7906 6.08404C16.4965 6.13036 16.2093 6.21303 15.9356 6.33014C15.6317 6.4619 15.3514 6.64233 15.1056 6.86434C14.6336 7.29618 14.3028 7.86041 14.1567 8.48324C14.0272 9.11062 13.9746 9.75144 14.0001 10.3915V12.0001V45.6086C13.9798 46.2046 14.0221 46.801 14.1265 47.388C14.2426 47.9729 14.5173 48.5145 14.9205 48.9537C14.9363 48.9705 14.9544 48.9837 14.9705 48.9998C15.1544 49.19 15.3626 49.3551 15.5897 49.4909C15.8472 49.6433 16.1245 49.7593 16.4138 49.8356C16.5069 49.8604 16.6027 49.8629 16.6967 49.8807C17.1772 49.9648 17.6645 50.0047 18.1523 49.9999C18.3215 50.0005 18.4953 50.0005 18.6661 49.9999H31.704C32.2997 50.0224 32.8961 49.9761 33.4812 49.8618C34.0689 49.7318 34.6066 49.4348 35.0297 49.0066C35.4514 48.5682 35.7411 48.0197 35.8655 47.4242C35.977 46.8258 36.0222 46.2169 36.0001 45.6086V10.8414C36.0001 10.6909 36.0001 10.5392 36.0001 10.3915V10.3915ZM23.3413 6.51154C23.3413 6.47706 23.355 6.444 23.3794 6.41962C23.4037 6.39524 23.4368 6.38154 23.4713 6.38154H26.5299C26.5644 6.38154 26.5974 6.39524 26.6218 6.41962C26.6462 6.444 26.6599 6.47706 26.6599 6.51154V6.53154C26.6599 6.56602 26.6462 6.59908 26.6218 6.62346C26.5974 6.64784 26.5644 6.66154 26.5299 6.66154H23.4708C23.4363 6.66154 23.4032 6.64784 23.3789 6.62346C23.3545 6.59908 23.3408 6.56602 23.3408 6.53154L23.3413 6.51154ZM21.7699 7.34454C21.8102 7.2775 21.8684 7.22295 21.9379 7.18698C22.0073 7.151 22.0854 7.13499 22.1635 7.14074C22.2655 7.15019 22.3603 7.1974 22.4294 7.27312C22.4984 7.34884 22.5367 7.44762 22.5367 7.55009C22.5367 7.65256 22.4984 7.75134 22.4294 7.82706C22.3603 7.90278 22.2655 7.95 22.1635 7.95944C22.0854 7.9651 22.0073 7.94901 21.9378 7.91294C21.8683 7.87688 21.8102 7.82225 21.7699 7.75514C21.7356 7.69206 21.7177 7.62141 21.7177 7.54961C21.7177 7.47782 21.7357 7.40719 21.7701 7.34414L21.7699 7.34454ZM35.0001 10.7664V24.4752V45.628C35.02 46.1557 34.9831 46.6839 34.8901 47.2036C34.807 47.6187 34.6074 48.0015 34.3147 48.3073C34.0242 48.6005 33.6546 48.8025 33.251 48.8886C32.7411 48.9834 32.2222 49.0208 31.704 48.9999H18.6648C18.5234 48.9999 18.2993 48.9999 18.1565 48.9999C17.9116 48.9988 17.6926 48.9926 17.4794 48.9809C17.207 48.9716 16.9362 48.9344 16.6714 48.8698C16.6571 48.8661 16.6462 48.8577 16.6321 48.8537C16.2581 48.7537 15.919 48.5525 15.6521 48.2721C15.3718 47.9649 15.1821 47.5859 15.1042 47.1773C15.0159 46.6594 14.981 46.1337 15.0001 45.6086V11.9999C15.0001 11.4858 15.0001 10.8899 15.0001 10.3763C14.9768 9.82327 15.0192 9.26939 15.1266 8.72634C15.2253 8.29613 15.4517 7.90576 15.776 7.60634C15.9415 7.45706 16.1302 7.33574 16.3348 7.24714C16.5333 7.16284 16.7416 7.10359 16.9548 7.07074C17.2188 7.03024 17.4854 7.00842 17.7526 7.00544C17.9353 7.00084 18.1489 7.00014 18.3516 7.00014H18.5172H18.6663H20.617C20.6721 6.99766 20.7272 7.0005 20.7818 7.00864C20.836 7.0155 20.8866 7.03991 20.9257 7.07814C20.9648 7.11638 20.9903 7.16635 20.9984 7.22044C21.0077 7.27487 21.012 7.33003 21.0113 7.38524C21.0114 7.50912 21.0208 7.63281 21.0397 7.75524C21.0606 7.87636 21.1023 7.99294 21.163 8.09984C21.26 8.26925 21.3999 8.41008 21.5687 8.50814C21.7003 8.58277 21.8455 8.63018 21.9958 8.64754C22.1473 8.66255 22.2996 8.66743 22.4517 8.66214H27.5489C27.701 8.66743 27.8534 8.66256 28.0049 8.64754C28.1551 8.63016 28.3004 8.58276 28.432 8.50814C28.6007 8.41008 28.7405 8.26928 28.8375 8.09994C28.8981 7.99303 28.9398 7.87645 28.9607 7.75534C28.9795 7.63291 28.9891 7.50922 28.9892 7.38534C28.9883 7.33013 28.9927 7.27495 29.0021 7.22054C29.0101 7.16646 29.0357 7.1165 29.0747 7.07827C29.1138 7.04004 29.1643 7.01562 29.2186 7.00874C29.2731 7.0005 29.3284 6.99756 29.3835 6.99994H31.5148H31.8436C32.3421 6.98037 32.8412 7.02405 33.3288 7.12994C33.7188 7.228 34.0726 7.4354 34.3488 7.72774C34.629 8.035 34.8186 8.41393 34.8965 8.82244C34.9848 9.34083 35.0197 9.86693 35.0005 10.3924C35.0001 10.4599 35.0001 10.7039 35.0001 10.7664V10.7664Z" fill="white"/>
</g>
<defs>
<clipPath id="clip0_29_268">
<rect width="36" height="54" fill="white"/>
</clipPath>
</defs>
</svg>
