<svg width="40" height="54" viewBox="0 0 40 54" fill="none" xmlns="http://www.w3.org/2000/svg">
<g clip-path="url(#clip0_29_271)">
<path d="M16.704 50.0001H6.0787H5.7087C5.6103 50.0001 5.51253 49.9997 5.4154 49.9991C4.90403 50.0082 4.39291 49.9699 3.8886 49.8848C3.54349 49.82 3.20917 49.7072 2.8954 49.5496C2.2727 49.2337 1.76673 48.7277 1.4508 48.1051C1.29316 47.7914 1.18039 47.4571 1.1158 47.112C1.02518 46.559 0.986607 45.9987 1.0006 45.4386V45.1453C1.0006 45.0711 1.0006 44.9965 1.0006 44.9214V12.0788C1.0006 12.0036 1.0006 11.9289 1.0006 11.8549C1.0006 11.7563 1.0006 11.6586 1.0006 11.5616C0.98661 11.0014 1.02518 10.4411 1.1158 9.88816C1.18041 9.54308 1.29318 9.20878 1.4508 8.89506C1.76669 8.27251 2.27254 7.76666 2.8951 7.45076C3.20887 7.29317 3.54319 7.18034 3.8883 7.11556C4.24265 7.05104 4.60167 7.01543 4.9618 7.00906C5.224 7.00096 5.5536 7.00006 5.8524 7.00006H6.0787H14.9513C14.9459 7.18926 14.9381 7.37746 14.9374 7.56906V7.72126V7.86406V8.00006H6.0787H5.9701H5.8524C5.5641 8.00006 5.2457 8.00066 4.9924 8.00856C4.68639 8.01308 4.38127 8.04268 4.0801 8.09706C3.82617 8.14394 3.58011 8.22639 3.3492 8.34196C2.91469 8.56186 2.56173 8.91472 2.3417 9.34916C2.22634 9.57981 2.14406 9.82556 2.0973 10.0792C2.01946 10.5703 1.98709 11.0676 2.0006 11.5647V11.8547V12.0786V44.9214V45.1419V45.4378C1.98716 45.9338 2.01953 46.43 2.0973 46.9201C2.14397 47.1741 2.22632 47.4202 2.3419 47.6512C2.56168 48.0856 2.91454 48.4385 3.349 48.6583C3.57993 48.7738 3.82598 48.8562 4.0799 48.9031C4.52352 48.9754 4.97279 49.0075 5.4222 48.9989L5.7093 49.0001H6.0787H15.7701C16.0158 49.389 16.3325 49.7283 16.7037 50.0001H16.704ZM13.5865 8.58636C13.8288 8.58636 14.0612 8.68263 14.2326 8.85398C14.4039 9.02533 14.5002 9.25774 14.5002 9.50006C14.5002 9.74239 14.4039 9.9748 14.2326 10.1461C14.0612 10.3175 13.8288 10.4138 13.5865 10.4138H9.4139C9.17157 10.4138 8.93917 10.3175 8.76781 10.1461C8.59646 9.9748 8.5002 9.74239 8.5002 9.50006C8.5002 9.25774 8.59646 9.02533 8.76781 8.85398C8.93917 8.68263 9.17157 8.58636 9.4139 8.58636H13.5865ZM13.6388 9.05006C13.5498 9.05006 13.4628 9.07646 13.3888 9.1259C13.3148 9.17535 13.2571 9.24563 13.2231 9.32786C13.189 9.41008 13.1801 9.50056 13.1974 9.58785C13.2148 9.67515 13.2577 9.75533 13.3206 9.81826C13.3835 9.8812 13.4637 9.92405 13.551 9.94142C13.6383 9.95878 13.7288 9.94987 13.811 9.91581C13.8932 9.88175 13.9635 9.82407 14.013 9.75007C14.0624 9.67607 14.0888 9.58907 14.0888 9.50006C14.0888 9.38072 14.0414 9.26626 13.957 9.18187C13.8726 9.09747 13.7581 9.05006 13.6388 9.05006V9.05006ZM30.5001 5.50006C30.5001 5.74237 30.4038 5.97474 30.2325 6.14608C30.0612 6.31743 29.8288 6.41371 29.5865 6.41376H25.4139C25.1716 6.41376 24.9392 6.3175 24.7678 6.14615C24.5965 5.9748 24.5002 5.74239 24.5002 5.50006C24.5002 5.25774 24.5965 5.02533 24.7678 4.85398C24.9392 4.68263 25.1716 4.58636 25.4139 4.58636H29.5865C29.8288 4.58639 30.0612 4.68267 30.2325 4.85402C30.4038 5.02537 30.5001 5.25775 30.5001 5.50006V5.50006ZM30.0885 5.50006C30.0885 5.41106 30.0621 5.32406 30.0127 5.25006C29.9632 5.17606 29.8929 5.11838 29.8107 5.08432C29.7285 5.05026 29.638 5.04135 29.5507 5.05871C29.4634 5.07607 29.3832 5.11893 29.3203 5.18187C29.2574 5.2448 29.2145 5.32498 29.1971 5.41227C29.1798 5.49957 29.1887 5.59004 29.2228 5.67227C29.2568 5.7545 29.3145 5.82478 29.3885 5.87423C29.4625 5.92367 29.5495 5.95006 29.6385 5.95006C29.7578 5.95006 29.8723 5.90265 29.9567 5.81826C30.0411 5.73387 30.0885 5.61941 30.0885 5.50006V5.50006ZM39.0001 7.86666V45.1335C39.0001 45.2323 39.0001 45.3302 38.9996 45.4275C39.0137 45.989 38.9752 46.5506 38.8844 47.105C38.8194 47.4508 38.7062 47.7859 38.5482 48.1004C38.2317 48.7247 37.7244 49.2318 37.1001 49.5483C36.7857 49.7063 36.4507 49.8194 36.1048 49.8843C35.7495 49.9489 35.3896 49.9846 35.0286 49.9911C34.7664 49.9992 34.4368 50.0001 34.138 50.0001H33.9087H21.0912H20.7201C20.6214 50.0001 20.5234 49.9997 20.4261 49.9991C20.0026 49.9994 19.5796 49.9719 19.1598 49.9167C19.0721 49.9044 18.982 49.9013 18.8956 49.8845C18.5497 49.8196 18.2147 49.7065 17.9003 49.5485C17.6189 49.4035 17.3599 49.2188 17.1312 49.0001C17.1085 48.9788 17.0824 48.9618 17.0604 48.9401C16.8147 48.694 16.6094 48.4108 16.452 48.1008C16.294 47.7863 16.1808 47.4512 16.1158 47.1054C16.0248 46.5509 15.9861 45.9892 16.0001 45.4275C16.0001 45.3302 16.0001 45.2323 16.0001 45.1335V7.86666C16.0001 7.76776 16.0001 7.66986 16.0001 7.57256C16.0008 7.38076 16.0074 7.19066 16.0128 7.00016C16.017 6.62963 16.0512 6.26004 16.1153 5.89506C16.1805 5.5493 16.2938 5.21438 16.452 4.90006C16.7683 4.27554 17.2756 3.7682 17.9001 3.45186C18.2145 3.29383 18.5495 3.18072 18.8954 3.11586C19.2506 3.05116 19.6106 3.01544 19.9716 3.00906C20.2338 3.00096 20.5634 3.00006 20.8622 3.00006H21.0915H33.909H34.0958H34.2801C34.3787 3.00006 34.4766 3.00006 34.5743 3.00106C35.0867 2.99197 35.5989 3.03033 36.1043 3.11566C36.4502 3.18052 36.7852 3.29363 37.0996 3.45166C37.7243 3.76797 38.2318 4.27538 38.5482 4.90006C38.7062 5.2145 38.8194 5.54952 38.8844 5.89536C38.9753 6.44958 39.014 7.01111 39.0001 7.57256V7.86666ZM38.0001 7.86666V7.71786V7.57506C38.0136 7.07708 37.9813 6.57891 37.9034 6.08686C37.8563 5.83219 37.7736 5.5854 37.6578 5.35376C37.4372 4.91764 37.0829 4.56345 36.6468 4.34286C36.4152 4.22703 36.1685 4.14438 35.9139 4.09736C35.4691 4.02477 35.0187 3.99261 34.5682 4.00126L34.2794 4.00006H34.0958H34.0033H21.0912H20.9812H20.8623C20.5737 4.00006 20.2556 4.00076 20.0023 4.00856C19.6952 4.01302 19.389 4.04272 19.0868 4.09736C18.8321 4.14442 18.5853 4.2271 18.3536 4.34296C17.9177 4.56325 17.5636 4.91715 17.3431 5.35296C17.2271 5.58484 17.1444 5.8319 17.0973 6.08686C17.0452 6.38857 17.0169 6.69392 17.0128 7.00006C17.0069 7.18706 17.0013 7.37326 17.0006 7.57586V7.72376V7.86896V45.1335V45.2763V45.425C16.987 45.9229 17.0194 46.4211 17.0973 46.9131C17.1444 47.1678 17.227 47.4147 17.3429 47.6464C17.5634 48.0824 17.9174 48.4365 18.3534 48.6571C18.5851 48.773 18.832 48.8557 19.0868 48.9028C19.1061 48.9066 19.1275 48.9064 19.1468 48.9099C19.5721 48.9749 20.002 49.0047 20.4322 48.9989L20.7203 48.9999H21.0909H34.0194H34.1383C34.4269 48.9999 34.745 48.9992 34.9983 48.9914C35.3054 48.9868 35.6116 48.9571 35.9138 48.9026C36.1685 48.8555 36.4153 48.7728 36.647 48.657C37.0827 48.4362 37.4365 48.0822 37.657 47.6464C37.773 47.4145 37.8558 47.1675 37.9028 46.9126C37.9809 46.4204 38.0135 45.9222 38.0001 45.4241V45.2823V45.131V7.86666Z" fill="white"/>
</g>
<defs>
<clipPath id="clip0_29_271">
<rect width="40" height="54" fill="white"/>
</clipPath>
</defs>
</svg>
