<svg width="45" height="54" viewBox="0 0 45 54" fill="none" xmlns="http://www.w3.org/2000/svg">
<g clip-path="url(#clip0_29_274)">
<path d="M14.5 13H5.5C4.04185 13.0017 2.64391 13.5818 1.61284 14.6128C0.58177 15.6439 0.00174664 17.0418 0 18.5L0 44.5C0.00182586 45.9581 0.581875 47.356 1.61293 48.3871C2.64398 49.4181 4.04187 49.9982 5.5 50H14.5C15.9581 49.9982 17.356 49.4181 18.3871 48.3871C19.4181 47.356 19.9982 45.9581 20 44.5V18.5C19.9983 17.0418 19.4182 15.6439 18.3872 14.6128C17.3561 13.5818 15.9582 13.0017 14.5 13V13ZM18 44.5C17.9989 45.4279 17.6298 46.3175 16.9736 46.9736C16.3175 47.6298 15.4279 47.9989 14.5 48H5.5C4.57208 47.9989 3.68249 47.6298 3.02635 46.9736C2.37022 46.3175 2.00111 45.4279 2 44.5V18.5C2.00111 17.5721 2.37022 16.6825 3.02635 16.0264C3.68249 15.3702 4.57208 15.0011 5.5 15H14.5C15.4279 15.0011 16.3175 15.3702 16.9736 16.0264C17.6298 16.6825 17.9989 17.5721 18 18.5V44.5ZM44 36.5H45V42.5H44V36.5ZM32 13H38V14H32V13ZM44 28.5H45V34.5H44V28.5ZM32 49H38V50H32V49ZM26 34.5H25V28.5H26V34.5ZM26 26.5H25V20.5H26V26.5ZM26 42.5H25V36.5H26V42.5ZM40 14.05V13.0253C41.3655 13.1512 42.6349 13.7822 43.5597 14.7948C44.4845 15.8074 44.9981 17.1287 45 18.5H44C43.9979 17.396 43.5887 16.3315 42.8506 15.5104C42.1126 14.6893 41.0976 14.1693 40 14.05V14.05ZM44 44.5H45C44.9981 45.8713 44.4845 47.1926 43.5597 48.2052C42.6349 49.2178 41.3655 49.8488 40 49.9747V48.95C41.0976 48.8307 42.1126 48.3107 42.8506 47.4896C43.5887 46.6685 43.9979 45.604 44 44.5V44.5ZM30 13.0253V14.05C28.9024 14.1693 27.8874 14.6893 27.1494 15.5104C26.4113 16.3315 26.0021 17.396 26 18.5H25C25.0019 17.1287 25.5155 15.8074 26.4403 14.7948C27.3651 13.7822 28.6345 13.1512 30 13.0253V13.0253ZM30 48.95V49.9751C28.6344 49.8492 27.365 49.2181 26.4402 48.2054C25.5154 47.1928 25.0018 45.8714 25 44.5H26C26.0021 45.604 26.4113 46.6685 27.1494 47.4896C27.8874 48.3107 28.9024 48.8307 30 48.95V48.95ZM44 20.5H45V26.5H44V20.5Z" fill="white"/>
</g>
<defs>
<clipPath id="clip0_29_274">
<rect width="45" height="54" fill="white"/>
</clipPath>
</defs>
</svg>
