<svg width="35" height="54" viewBox="0 0 35 54" fill="none" xmlns="http://www.w3.org/2000/svg">
<path d="M35 47V13H33V9.25C33 9.05109 32.921 8.86032 32.7803 8.71967C32.6397 8.57902 32.4489 8.5 32.25 8.5C32.0511 8.5 31.8603 8.57902 31.7197 8.71967C31.579 8.86032 31.5 9.05109 31.5 9.25V13H3.5V9.25C3.5 9.05109 3.42098 8.86032 3.28033 8.71967C3.13968 8.57902 2.94891 8.5 2.75 8.5C2.55109 8.5 2.36032 8.57902 2.21967 8.71967C2.07902 8.86032 2 9.05109 2 9.25V13H0V47H1.75V48.5C1.75 48.6326 1.69732 48.7598 1.60355 48.8536C1.50979 48.9473 1.38261 49 1.25 49H0V50H5V49H3.75C3.61739 49 3.49021 48.9473 3.39645 48.8536C3.30268 48.7598 3.25 48.6326 3.25 48.5V47H31.75V48.5C31.75 48.6326 31.6973 48.7598 31.6036 48.8536C31.5098 48.9473 31.3826 49 31.25 49H30V50H35V49H33.75C33.6174 49 33.4902 48.9473 33.3964 48.8536C33.3027 48.7598 33.25 48.6326 33.25 48.5V47H35ZM17.947 24.92C18.2804 24.5201 18.7586 24.2684 19.277 24.22C19.3095 24.7515 19.1418 25.2759 18.807 25.69C18.6481 25.8934 18.4447 26.0578 18.2124 26.1705C17.9801 26.2831 17.7252 26.3411 17.467 26.34C17.4487 26.0833 17.4817 25.8255 17.5641 25.5817C17.6465 25.3379 17.7767 25.1129 17.947 24.92ZM20.537 32.25C20.157 32.81 19.777 33.37 19.157 33.38C18.557 33.39 18.357 33.02 17.677 33.02C16.997 33.02 16.767 33.37 16.207 33.39C15.607 33.41 15.157 32.79 14.777 32.23C14.007 31.09 13.417 29.02 14.207 27.62C14.3888 27.2819 14.6564 26.9976 14.9829 26.7957C15.3094 26.5938 15.6833 26.4815 16.067 26.47C16.657 26.46 17.197 26.86 17.547 26.86C17.897 26.86 18.527 26.39 19.277 26.43C19.6041 26.442 19.9237 26.5306 20.2103 26.6886C20.4969 26.8467 20.7424 27.0698 20.927 27.34C20.6312 27.5266 20.3873 27.7848 20.2178 28.0907C20.0482 28.3966 19.9585 28.7403 19.957 29.09C19.9551 29.4843 20.0687 29.8705 20.2837 30.201C20.4987 30.5315 20.8058 30.7919 21.167 30.95C21.009 31.4066 20.7975 31.843 20.537 32.25V32.25Z" fill="white"/>
</svg>
