<svg width="103" height="54" viewBox="0 0 103 54" fill="none" xmlns="http://www.w3.org/2000/svg">
<g clip-path="url(#clip0_29_283)">
<path d="M103 48C102.947 48.0923 102.648 48.3232 102.564 48.3232C102.564 48.3232 100.494 49.5737 97.9258 49.7451C95.3584 49.9165 93 49.9971 93 49.9971L80 50C80 50 71.7373 49.9962 68.3866 49.9962C67.5348 49.9962 67.0004 49.9964 67 49.9971C66.9996 49.9978 66.9901 49.9982 66.9719 49.9982C66.686 49.9982 64.2636 49.9085 61.8506 49.7451C59.2822 49.5713 57.211 48.3232 57.211 48.3232C57.127 48.3232 57.0528 48.0923 57.0001 48H61.0001V42H63.0001V48H64.0001H97.0001V28H73V26H97.5C98.4774 26 99 26.5415 99 27.5V48H103ZM1.75 28V27.5C1.75 26.5352 2.5352 25.75 3.5 25.75H25V24H2.5C1.1193 24 0 25.1193 0 26.5V29.75C0.9648 29.75 1.75 28.9648 1.75 28ZM27.5 42H38V47.5C38 48.8807 36.8807 50 35.5 50H2.5C1.1193 50 0 48.8807 0 47.5V30.25C1.2402 30.25 2.25 29.2407 2.25 28V27.5C2.25 26.8105 2.8105 26.25 3.5 26.25H25V39.5C25 40.8785 26.1215 42 27.5 42ZM18.9912 35.6138C18.9912 35.646 18.9912 35.6679 18.9922 35.6803C18.9949 35.6986 19.0166 35.7047 19.0596 35.7047C19.1636 35.7047 19.2661 35.6785 19.366 35.6233C19.4673 35.5692 19.5567 35.4964 19.6365 35.4028C19.7178 35.3117 19.7791 35.2075 19.8272 35.0912C19.8746 34.9738 19.9 34.8565 19.9 34.7409V34.692C19.9 34.678 19.8983 34.6631 19.8929 34.6465C19.7756 34.6535 19.6601 34.6832 19.5506 34.7418C19.4402 34.8013 19.3441 34.8784 19.2645 34.9659C19.1795 35.0597 19.1164 35.1638 19.0658 35.2758C19.0166 35.3897 18.9912 35.5009 18.9912 35.6138V35.6138ZM20.8322 38.006C20.6413 37.9221 20.4925 37.7952 20.3875 37.6279C20.2798 37.4615 20.2282 37.2787 20.2282 37.0774C20.2282 36.8856 20.2667 36.7158 20.341 36.5749C20.419 36.4313 20.5433 36.3088 20.7132 36.2063C20.6212 36.0663 20.4942 35.9561 20.3367 35.8729C20.1757 35.7879 20.012 35.7459 19.835 35.7459C19.7694 35.7459 19.7056 35.7538 19.6426 35.7678C19.5803 35.7818 19.4998 35.8072 19.3948 35.8431C19.2888 35.8834 19.204 35.9123 19.147 35.9324C19.0928 35.9534 19.0543 35.963 19.0325 35.963C18.9693 35.963 18.8609 35.9288 18.7043 35.8606C18.5449 35.7948 18.4066 35.7607 18.2893 35.7607C18.1307 35.7607 17.9829 35.7948 17.849 35.8606C17.7142 35.9287 17.5969 36.0216 17.4945 36.1458C17.3929 36.2666 17.3115 36.4138 17.2538 36.5791C17.1962 36.7464 17.168 36.9285 17.168 37.1244C17.168 37.2523 17.1828 37.3818 17.2057 37.5167C17.2266 37.6524 17.2599 37.7845 17.2995 37.9157C17.3395 38.0505 17.393 38.1774 17.4492 38.3027C17.5102 38.4252 17.5708 38.539 17.6417 38.6422C17.717 38.7543 17.7853 38.8453 17.8491 38.9197C17.9104 38.995 17.9656 39.0545 18.0216 39.0991C18.0776 39.1429 18.1309 39.1753 18.1826 39.1954C18.2326 39.2129 18.2833 39.2224 18.341 39.2224C18.3769 39.2224 18.4302 39.2129 18.4889 39.1954C18.5468 39.1753 18.6132 39.1559 18.6849 39.1325C18.7541 39.1097 18.8242 39.0878 18.8958 39.0685C18.9642 39.0466 19.0307 39.0379 19.0901 39.0379C19.1454 39.0379 19.204 39.0467 19.2739 39.0643C19.3403 39.0862 19.4078 39.1053 19.4752 39.1272C19.5417 39.1491 19.6057 39.1693 19.6704 39.1885C19.7327 39.207 19.787 39.2165 19.8315 39.2165C19.9016 39.2165 19.968 39.2034 20.0302 39.1694C20.0966 39.136 20.1589 39.0905 20.2219 39.038C20.2525 39.0039 20.299 38.9548 20.3576 38.8858C20.4109 38.8166 20.4687 38.7343 20.5291 38.6423C20.5861 38.5531 20.6412 38.4507 20.6955 38.3438C20.748 38.2355 20.7944 38.1207 20.8322 38.006V38.006ZM60 41H56H55.5H42.5H42H39H38.5H38H27.5C26.6716 41 26 40.3284 26 39.5V26.25V25.75V24V23.5V23V15.5C26 14.6716 26.6716 14 27.5 14H70.5C71.3284 14 72 14.6716 72 15.5V25V25.5V26V28V28.5V29V39.5C72 40.3284 71.3284 41 70.5 41H64H63.5H63H61H60.5H60ZM60 39H60.5H61H63H63.5H64H70V29V28.5V28V26V25.5V25V16H28V23V23.5V24V25.75V26.25V39H38H38.5H39H60ZM43 42V50H55V42V41.5H43V42Z" fill="white"/>
</g>
<defs>
<clipPath id="clip0_29_283">
<rect width="103" height="54" fill="white"/>
</clipPath>
</defs>
</svg>
