<svg width="28" height="54" viewBox="0 0 28 54" fill="none" xmlns="http://www.w3.org/2000/svg">
<g clip-path="url(#clip0_29_304)">
<path d="M7.52055e-05 43V49C-0.00976989 49.1338 0.00934486 49.2682 0.0561177 49.394C0.102891 49.5198 0.176223 49.6341 0.271121 49.729C0.366019 49.8239 0.480253 49.8972 0.606045 49.944C0.731837 49.9907 0.866231 50.0098 1.00008 50H27.0001C27.1339 50.0098 27.2683 49.9907 27.3941 49.944C27.5199 49.8972 27.6341 49.8239 27.729 49.729C27.8239 49.6341 27.8973 49.5198 27.944 49.394C27.9908 49.2682 28.0099 49.1338 28.0001 49V43H7.52055e-05ZM23.5001 48.454C23.3169 48.4471 23.1398 48.3865 22.9908 48.2797C22.8419 48.1729 22.7276 48.0246 22.6623 47.8534C22.5971 47.6821 22.5836 47.4954 22.6237 47.3165C22.6637 47.1377 22.7555 46.9746 22.8876 46.8475C23.0197 46.7204 23.1863 46.635 23.3666 46.602C23.5469 46.5689 23.7329 46.5896 23.9015 46.6615C24.0701 46.7334 24.2138 46.8534 24.3147 47.0064C24.4157 47.1594 24.4693 47.3387 24.4691 47.522C24.4669 47.6469 24.44 47.7701 24.3901 47.8846C24.3402 47.9991 24.2681 48.1026 24.1781 48.1892C24.0881 48.2758 23.9818 48.3437 23.8655 48.3892C23.7491 48.4346 23.625 48.4567 23.5001 48.454V48.454Z" fill="white"/>
</g>
<defs>
<clipPath id="clip0_29_304">
<rect width="28" height="54" fill="white"/>
</clipPath>
</defs>
</svg>
