<svg width="84" height="54" viewBox="0 0 84 54" fill="none" xmlns="http://www.w3.org/2000/svg">
<g clip-path="url(#clip0_29_286)">
<path d="M33.5281 50H1.5179C1.31854 50 1.12114 49.9607 0.936963 49.8844C0.752789 49.808 0.58545 49.6962 0.4445 49.5552C0.30355 49.4142 0.191749 49.2469 0.115482 49.0627C0.0392146 48.8785 -2.62529e-05 48.6811 1.31773e-08 48.4817V47.5H5C5 47.5 5 20.8039 5.0015 20.0677C5.0024 19.5602 5.0037 19.233 5.0056 18.9858C5.0078 18.7419 5.0109 18.5749 5.015 18.4405C5.01942 18.2403 5.03461 18.0404 5.0605 17.8418C5.08973 17.6056 5.15605 17.3755 5.257 17.16C5.4465 16.7647 5.76544 16.4461 6.1609 16.257C6.3764 16.1564 6.60637 16.0902 6.8424 16.061C7.04142 16.0349 7.24172 16.0196 7.4424 16.0152C7.5773 16.0108 7.7445 16.0077 7.9889 16.0052C8.2365 16.0029 8.564 16.0017 9.0714 16.0008C9.4142 16.0007 9.8221 16 10.3987 16H47.6013C48.1779 16 48.5858 16.0007 48.9285 16.0012C49.4359 16.0021 49.7634 16.0033 50.011 16.0056C50.2554 16.0077 50.4226 16.0108 50.5575 16.0156C50.7582 16.02 50.9585 16.0353 51.1575 16.0614C51.3935 16.0906 51.6235 16.1568 51.839 16.2574C52.2345 16.4466 52.5534 16.7652 52.7431 17.1604C52.8439 17.3759 52.9101 17.6058 52.9394 17.8419C52.9653 18.0405 52.9805 18.2404 52.9849 18.4406C52.989 18.575 52.9921 18.742 52.9943 18.9859C52.9962 19.2331 52.9975 19.5603 52.9984 20.0678C52.9984 20.1789 52.9984 20.8884 52.9989 22.0003H51.4989C51.4989 20.8992 51.4989 20.1915 51.4984 20.0703C51.4975 19.5679 51.4962 19.2433 51.4943 18.9982C51.4923 18.7707 51.4895 18.6137 51.4856 18.4873C51.4828 18.3414 51.4722 18.1958 51.4539 18.051C51.4458 17.9678 51.4245 17.8863 51.3908 17.8098C51.3488 17.7226 51.2782 17.6523 51.1908 17.6107C51.1136 17.5768 51.0314 17.5553 50.9475 17.5472C50.8017 17.5288 50.6551 17.5182 50.5082 17.5153C50.3823 17.5113 50.2258 17.5085 49.9972 17.5064C49.7518 17.5042 49.4272 17.503 48.9254 17.5021L47.6007 17.5H31.7782V17.5148C31.7782 17.7791 31.6732 18.0327 31.4863 18.2196C31.2994 18.4065 31.0458 18.5115 30.7815 18.5115H27.2185C26.9542 18.5115 26.7006 18.4065 26.5137 18.2196C26.3268 18.0327 26.2218 17.7791 26.2218 17.5148V17.5H10.3994L9.074 17.5012C8.5718 17.5021 8.2477 17.5033 8.0027 17.5055C7.7737 17.5076 7.6172 17.5104 7.4911 17.5144C7.34424 17.5173 7.19763 17.5279 7.0519 17.5463C6.96801 17.5544 6.88595 17.5759 6.8088 17.6098C6.76586 17.6303 6.72667 17.6578 6.6929 17.6913C6.65821 17.7259 6.6297 17.7662 6.6086 17.8104C6.57493 17.8868 6.55373 17.9682 6.5458 18.0513C6.52753 18.1967 6.51698 18.343 6.5142 18.4895C6.5104 18.6128 6.5076 18.7695 6.5056 18.999C6.5037 19.2424 6.5024 19.567 6.5015 20.0704C6.5 20.8809 6.5 47.3631 6.5 47.4969V47.5H32V48.6917L32.147 48.9317C32.4934 49.4148 32.9734 49.7862 33.5281 50V50ZM78.99 47H84V48.41C83.36 49.44 79.53 49.98 78.16 49.98H38.45C37.1 49.98 33.63 49.44 33 48.41V47H38V24.49C38 24.4766 38 24.4631 38 24.45C38.0053 24.0636 38.1625 23.6948 38.4376 23.4235C38.7127 23.1521 39.0836 23 39.47 23H39.4905H77.5H77.52H77.54C77.733 23.0026 77.9237 23.0432 78.101 23.1195C78.2784 23.1958 78.439 23.3063 78.5736 23.4447C78.7083 23.583 78.8144 23.7466 78.8858 23.9259C78.9572 24.1053 78.9926 24.297 78.99 24.49V47ZM77 24.98H39.99V47H77V24.98Z" fill="white"/>
</g>
<defs>
<clipPath id="clip0_29_286">
<rect width="84" height="54" fill="white"/>
</clipPath>
</defs>
</svg>
