<svg width="58" height="54" viewBox="0 0 58 54" fill="none" xmlns="http://www.w3.org/2000/svg">
<g clip-path="url(#clip0_29_292)">
<path d="M49.6299 47.5001C49.6299 47.7236 49.5636 47.9421 49.4395 48.1279C49.3153 48.3137 49.1388 48.4586 48.9323 48.5441C48.7259 48.6296 48.4987 48.652 48.2795 48.6084C48.0603 48.5648 47.8589 48.4572 47.7009 48.2991C47.5428 48.1411 47.4352 47.9397 47.3916 47.7205C47.348 47.5013 47.3704 47.2741 47.4559 47.0677C47.5415 46.8612 47.6863 46.6847 47.8721 46.5605C48.0579 46.4364 48.2764 46.3701 48.4999 46.3701C48.7995 46.3704 49.0867 46.4896 49.2986 46.7014C49.5104 46.9133 49.6296 47.2005 49.6299 47.5001V47.5001ZM57.9999 13.0001V47.0001C57.9999 47.7957 57.6838 48.5588 57.1212 49.1214C56.5586 49.684 55.7956 50.0001 54.9999 50.0001H41.9999C41.254 49.9983 40.5359 49.7168 39.9874 49.2113C40.1459 49.0067 40.2855 48.7882 40.4047 48.5585C40.6047 48.1624 40.7479 47.74 40.83 47.3039C40.9337 46.689 40.9785 46.0655 40.9638 45.4421V45.0001H56.9999V15.0001H40.964V11.6049V11.3091C40.9627 10.9374 40.9496 10.5717 40.9217 10.2082C41.2651 10.0726 41.6307 10.002 41.9999 10.0001H54.9999C55.7956 10.0001 56.5586 10.3162 57.1212 10.8788C57.6838 11.4414 57.9999 12.2044 57.9999 13.0001V13.0001ZM44.8749 12.5001C44.8749 12.4259 44.8529 12.3534 44.8117 12.2918C44.7705 12.2301 44.7119 12.182 44.6434 12.1536C44.5749 12.1253 44.4995 12.1178 44.4268 12.1323C44.354 12.1468 44.2872 12.1825 44.2347 12.2349C44.1823 12.2874 44.1466 12.3542 44.1321 12.4269C44.1176 12.4997 44.1251 12.5751 44.1535 12.6436C44.1818 12.7121 44.2299 12.7707 44.2916 12.8119C44.3532 12.8531 44.4257 12.8751 44.4999 12.8751C44.5994 12.8751 44.6947 12.8356 44.765 12.7652C44.8354 12.6949 44.8749 12.5995 44.8749 12.5001V12.5001ZM50.9999 12.5001C50.9997 12.4338 50.9733 12.3704 50.9265 12.3235C50.8796 12.2767 50.8162 12.2503 50.7499 12.2501H46.2499C46.1836 12.2501 46.12 12.2764 46.0731 12.3233C46.0262 12.3702 45.9999 12.4338 45.9999 12.5001C45.9999 12.5664 46.0262 12.63 46.0731 12.6769C46.12 12.7238 46.1836 12.7501 46.2499 12.7501H50.7499C50.8162 12.7499 50.8796 12.7235 50.9265 12.6767C50.9733 12.6298 50.9997 12.5663 50.9999 12.5001V12.5001ZM50.2499 47.5001C50.2499 47.154 50.1473 46.8156 49.955 46.5278C49.7627 46.2401 49.4894 46.0158 49.1696 45.8833C48.8498 45.7509 48.498 45.7162 48.1585 45.7837C47.819 45.8512 47.5072 46.0179 47.2625 46.2627C47.0177 46.5074 46.8511 46.8192 46.7835 47.1587C46.716 47.4982 46.7507 47.85 46.8831 48.1698C47.0156 48.4896 47.2399 48.7629 47.5277 48.9552C47.8154 49.1475 48.1538 49.2501 48.4999 49.2501C48.964 49.2501 49.4092 49.0657 49.7373 48.7375C50.0655 48.4093 50.2499 47.9642 50.2499 47.5001V47.5001ZM5.93131 13.2549C5.66518 13.4238 5.36545 13.5327 5.05297 13.574C4.74049 13.6153 4.42276 13.5881 4.12188 13.4941C3.821 13.4002 3.54419 13.2419 3.31071 13.0301C3.07723 12.8184 2.89269 12.5583 2.76991 12.268C2.65386 11.9609 2.61241 11.6307 2.64898 11.3045C2.68554 10.9782 2.79908 10.6654 2.98024 10.3916C3.16139 10.1178 3.40499 9.89103 3.69096 9.72985C3.97693 9.56866 4.29711 9.47772 4.62511 9.4645C5.08502 9.42247 5.54573 9.53589 5.93357 9.78663C6.3214 10.0374 6.61395 10.4109 6.76441 10.8475C6.91488 11.2842 6.91457 11.7586 6.76354 12.1951C6.6125 12.6315 6.31947 13.0047 5.93131 13.2549ZM9.60881 12.0401C9.26293 12.0524 8.92564 12.1511 8.62769 12.3272C8.32974 12.5033 8.08061 12.7512 7.90301 13.0483C7.72541 13.3453 7.62499 13.6821 7.61092 14.0279C7.59684 14.3737 7.66955 14.7176 7.82241 15.0281C7.96593 15.2926 8.16256 15.5246 8.39999 15.7095C8.63741 15.8944 8.91048 16.0283 9.20208 16.1027C9.49368 16.1771 9.79751 16.1904 10.0945 16.1418C10.3915 16.0932 10.6752 15.9837 10.9279 15.8203C11.3118 15.5673 11.6002 15.1935 11.7475 14.758C11.8948 14.3225 11.8926 13.8503 11.7411 13.4163C11.5897 12.9822 11.2976 12.6111 10.9114 12.3619C10.5251 12.1126 10.0667 11.9993 9.60881 12.0401V12.0401ZM4.71211 14.6201C4.37542 14.6193 4.0436 14.7006 3.74541 14.8569C3.44723 15.0133 3.19165 15.24 3.00083 15.5174C2.81001 15.7948 2.6897 16.1145 2.65031 16.4489C2.61093 16.7833 2.65366 17.1223 2.77481 17.4364C2.93077 17.7969 3.18208 18.1081 3.5017 18.3364C3.82133 18.5647 4.19717 18.7016 4.58878 18.7322C4.98038 18.7629 5.37293 18.6861 5.72418 18.5103C6.07543 18.3345 6.37208 18.0662 6.58221 17.7343C6.77144 17.4139 6.87062 17.0483 6.86927 16.6762C6.86791 16.3041 6.76607 15.9393 6.57451 15.6203C6.38295 15.3013 6.10877 15.04 5.78095 14.8639C5.45313 14.6879 5.08385 14.6036 4.71211 14.6201V14.6201ZM18.5668 48.5589C18.7473 48.9068 18.9747 49.2283 19.2426 49.5143C18.9206 49.6658 18.581 49.7767 18.2316 49.8443C17.8336 49.9162 17.4304 49.9559 17.026 49.9631C16.6547 49.9746 16.1623 49.9731 15.7716 49.9731H5.71161H5.29561C5.18501 49.9731 5.07501 49.9727 4.96561 49.9719C4.39138 49.982 3.81744 49.9394 3.25101 49.8445C2.86369 49.7723 2.48831 49.6466 2.13571 49.4708C1.43769 49.1202 0.869593 48.5562 0.513909 47.8608C0.336829 47.5114 0.210072 47.1387 0.137409 46.7538C0.0356558 46.1375 -0.00766984 45.5129 0.00800875 44.8884C0.00800875 44.7802 0.00800875 44.6712 0.00800875 44.5615V12.1885C0.00800875 12.0786 0.00800875 11.9696 0.00800875 11.8615C-0.00753027 11.237 0.0359292 10.6124 0.137809 9.996C0.210504 9.61113 0.337258 9.23847 0.514309 8.88909C0.869941 8.19362 1.43805 7.62964 2.13611 7.27909C2.4887 7.10328 2.86408 6.97747 3.25141 6.90529C3.64949 6.83335 4.05274 6.79366 4.45721 6.78659C4.82851 6.77509 5.32091 6.7766 5.71161 6.7766H15.7716H16.1876C16.2976 6.7766 16.4076 6.77659 16.517 6.77779C17.0912 6.76766 17.6652 6.8103 18.2316 6.90519C18.581 6.97279 18.9206 7.08364 19.2426 7.23519C18.9747 7.52134 18.7473 7.84291 18.5668 8.19089C18.3667 8.58702 18.2235 9.00937 18.1413 9.4455C18.0377 10.0605 17.993 10.684 18.0077 11.3075V11.6042V45.1442V45.4392C17.9929 46.0632 18.0376 46.6872 18.1413 47.3027C18.2233 47.7394 18.3665 48.1623 18.5668 48.5589V48.5589ZM12.3868 12.5282C12.3868 12.2489 12.3868 12.0547 12.3863 11.8921C12.3863 11.7321 12.3843 11.5999 12.3802 11.4785C12.3747 11.2402 12.3479 11.0028 12.3002 10.7692C12.2489 10.5254 12.1643 10.2899 12.0488 10.0692C11.8082 9.61315 11.4353 9.24049 10.9791 9.00009C10.7584 8.88457 10.5229 8.79998 10.2791 8.74869C10.0456 8.70084 9.80823 8.67406 9.56991 8.66869C9.44861 8.66449 9.31601 8.663 9.15611 8.6624C8.99371 8.6618 8.79941 8.6624 8.52011 8.6624H5.78091C5.50161 8.6624 5.30731 8.6624 5.14471 8.6624C4.98471 8.663 4.85241 8.66449 4.73111 8.66869C4.49252 8.67404 4.2549 8.70081 4.02111 8.74869C3.77771 8.80002 3.54253 8.88462 3.32221 9.00009C2.86601 9.24077 2.49323 9.61376 2.25281 10.0701C2.13732 10.2908 2.05273 10.5263 2.00141 10.7701C1.95355 11.0037 1.92677 11.241 1.92141 11.4794C1.91701 11.6008 1.91581 11.7332 1.91511 11.893V12.5291V15.6751V16.3111C1.91581 16.4711 1.91701 16.6033 1.92141 16.7248C1.92678 16.9631 1.95355 17.2005 2.00141 17.434C2.05271 17.6778 2.1373 17.9133 2.25281 18.134C2.49329 18.5901 2.86607 18.9629 3.32221 19.2033C3.54267 19.3189 3.77802 19.4035 4.02161 19.4547C4.2554 19.5026 4.49302 19.5293 4.73161 19.5347C4.85291 19.5389 4.98531 19.5403 5.14521 19.541C5.30781 19.5416 5.50211 19.541 5.78141 19.541H8.52141H9.15741C9.31741 19.5403 9.44991 19.5389 9.57121 19.5347C9.80953 19.5293 10.0469 19.5025 10.2804 19.4547C10.5242 19.4035 10.7597 19.3189 10.9804 19.2033C11.4365 18.9629 11.8093 18.5901 12.0498 18.134C12.1653 17.9133 12.2499 17.6778 12.3012 17.434C12.3489 17.2004 12.3757 16.9631 12.3812 16.7248C12.3853 16.6033 12.3868 16.471 12.3873 16.3111C12.3878 16.1486 12.3878 15.9543 12.3878 15.6751L12.3868 12.5282ZM19.7291 48.5482C19.6273 48.4078 19.5368 48.2597 19.4583 48.1051C19.3793 47.9496 19.312 47.7885 19.2569 47.6231C19.312 47.7886 19.3793 47.9497 19.4583 48.1052C19.5367 48.2597 19.6271 48.4078 19.7287 48.5481L19.7291 48.5482ZM23.8644 7.75009H23.9818H24.091H34.8905H35.2592L35.5473 7.75109C35.9965 7.7425 36.4456 7.77453 36.8891 7.8468C37.1432 7.89376 37.3894 7.97623 37.6205 8.09179C38.0549 8.31156 38.4076 8.66439 38.6273 9.09879C38.7429 9.32974 38.8253 9.57583 38.8722 9.8298C38.9499 10.3213 38.9822 10.819 38.9687 11.3165V11.6047V44.9201V45.4348C38.9822 45.9317 38.9499 46.4287 38.8722 46.9197C38.8253 47.1738 38.7428 47.4201 38.6271 47.6512C38.4073 48.0857 38.0544 48.4386 37.6199 48.6583C37.389 48.7738 37.143 48.8562 36.8891 48.9031C36.5877 48.9575 36.2823 48.9871 35.9761 48.9916C35.7231 48.9995 35.405 49.0001 35.1161 49.0001H34.9999H34.8907H24.091H23.721L23.4339 48.9991C22.9845 49.0077 22.5352 48.9757 22.0916 48.9033C21.8378 48.8564 21.5918 48.774 21.3609 48.6585C20.9264 48.4388 20.5735 48.0859 20.3538 47.6514C20.2383 47.4204 20.1559 47.1743 20.109 46.9204C20.0311 46.43 19.9988 45.9335 20.0125 45.4372V45.1455V11.6055V11.3155C19.9988 10.8184 20.0312 10.3212 20.1093 9.83009C20.1562 9.57598 20.2386 9.32973 20.3541 9.0986C20.574 8.66452 20.9266 8.31192 21.3607 8.09209C21.5918 7.97657 21.8379 7.8941 22.0919 7.8471C22.3933 7.79271 22.6987 7.76311 23.005 7.75859C23.258 7.75069 23.5761 7.75009 23.8644 7.75009M23.8644 6.75009C23.5656 6.75009 23.236 6.75089 22.9744 6.75909C22.6139 6.76541 22.2546 6.80103 21.8999 6.86559C21.5548 6.93044 21.2205 7.0433 20.9067 7.20089C20.2843 7.51671 19.7786 8.02256 19.463 8.6451C19.3055 8.95886 19.1926 9.29313 19.1278 9.63819C19.0372 10.1912 18.9987 10.7515 19.0128 11.3117C19.0124 11.4087 19.0124 11.5064 19.0128 11.6049V45.1449V45.4382C18.9987 45.9984 19.0372 46.5586 19.1278 47.1116C19.1926 47.4567 19.3054 47.7909 19.463 48.1047C19.7787 48.7273 20.2845 49.2332 20.9071 49.5489C21.2209 49.7065 21.5552 49.8194 21.9003 49.8842C22.4046 49.9693 22.9157 50.0076 23.4271 49.9985C23.5243 49.9991 23.6221 49.9994 23.7204 49.9995H24.091H34.8905H35.1168C35.4157 49.9995 35.7455 49.9987 36.0075 49.9905C36.3677 49.9841 36.7268 49.9485 37.0812 49.884C37.4262 49.8193 37.7605 49.7064 38.0741 49.5487C38.6969 49.2331 39.2028 48.7272 39.5185 48.1045C39.6761 47.7907 39.7889 47.4565 39.8537 47.1114C39.9442 46.5584 39.9827 45.9982 39.9687 45.438V44.9208V11.6049C39.9687 11.5064 39.9687 11.4086 39.9687 11.3117C39.9827 10.7515 39.9442 10.1912 39.8537 9.63819C39.7889 9.29313 39.6761 8.95886 39.5185 8.6451C39.2028 8.02239 38.6969 7.51651 38.0741 7.20089C37.7604 7.04325 37.4262 6.93039 37.0812 6.86559C36.5769 6.78052 36.0657 6.74226 35.5543 6.7513C35.4572 6.7507 35.3594 6.75036 35.2611 6.75029H34.8905H24.091H23.8644V6.75009ZM31.5937 8.2601H27.421C27.1803 8.26261 26.9503 8.35999 26.781 8.53108C26.6117 8.70217 26.5168 8.93315 26.5168 9.17384C26.5168 9.41454 26.6117 9.64552 26.781 9.81661C26.9503 9.9877 27.1803 10.0851 27.421 10.0876H31.5937C31.7145 10.0889 31.8344 10.0662 31.9463 10.0208C32.0583 9.97545 32.1602 9.90834 32.246 9.82337C32.3319 9.73839 32.4001 9.63724 32.4466 9.52575C32.4931 9.41426 32.5171 9.29465 32.5171 9.17384C32.5171 9.05304 32.4931 8.93343 32.4466 8.82194C32.4001 8.71045 32.3319 8.6093 32.246 8.52432C32.1602 8.43935 32.0583 8.37224 31.9463 8.32689C31.8344 8.28153 31.7145 8.25883 31.5937 8.2601V8.2601ZM31.6459 9.6238C31.5569 9.6238 31.4699 9.5974 31.3959 9.54796C31.3219 9.49851 31.2642 9.42823 31.2302 9.346C31.1961 9.26378 31.1872 9.1733 31.2046 9.086C31.2219 8.99871 31.2648 8.91853 31.3277 8.8556C31.3906 8.79266 31.4708 8.7498 31.5581 8.73244C31.6454 8.71508 31.7359 8.72399 31.8181 8.75805C31.9003 8.79211 31.9706 8.84979 32.0201 8.92379C32.0695 8.99779 32.0959 9.08479 32.0959 9.1738C32.0959 9.2329 32.0843 9.29143 32.0617 9.34603C32.0391 9.40064 32.0059 9.45026 31.9641 9.49206C31.9224 9.53385 31.8727 9.56701 31.8181 9.58963C31.7635 9.61225 31.705 9.6239 31.6459 9.6239V9.6238Z" fill="white"/>
</g>
<defs>
<clipPath id="clip0_29_292">
<rect width="58" height="54" fill="white"/>
</clipPath>
</defs>
</svg>
