<svg width="66" height="54" viewBox="0 0 66 54" fill="none" xmlns="http://www.w3.org/2000/svg">
<g clip-path="url(#clip0_29_289)">
<path d="M43.7 16H36V9C36 7.8954 36.8955 7 38 7H45.499C45.7751 7 45.999 7.2238 45.999 7.5V16.9409C45.4041 16.3607 44.5942 16 43.7 16ZM56.5 7H47.5C47.2239 7 47 7.2238 47 7.5V19.3023V47.6977V49.5C47 49.7761 47.2239 50 47.5 50H56.5C56.7761 50 57 49.7761 57 49.5V7.5C57 7.2238 56.7761 7 56.5 7ZM64 7H61H58.5C58.2239 7 58 7.2238 58 7.5V49.5C58 49.7761 58.2239 50 58.5 50H61H64C65.1045 50 66 49.1046 66 48V9C66 7.8954 65.1045 7 64 7ZM5 48H3C2.4478 48 2 47.5523 2 47V5C2 4.4477 2.4478 4 3 4H5H31C31.5522 4 32 4.4477 32 5V16H34V5C34 3.3431 32.6569 2 31 2H5H3C1.3431 2 0 3.3431 0 5V47C0 48.6569 1.3431 50 3 50H5H22.9415C22.428 49.4733 22.1021 48.7737 22.0305 48H5ZM45.9695 18.9999C45.9828 19.0999 46 19.1987 46 19.3023V47.6977C46 48.9692 44.9702 50 43.7 50H27.106H26.1199H25.3C25.2347 50 25.1733 49.9861 25.1093 49.9808C24.0311 49.8907 23.1713 49.0641 23.0304 48C23.0172 47.9001 23 47.8013 23 47.6977V47.5V47V19.3023C23 18.0308 24.0298 17 25.3 17H31H31.5H32H34H34.5H35H36H43.7C44.8667 17 45.8203 17.8728 45.9695 18.9999V18.9999ZM44 19.7436C44 19.3329 43.6729 19 43.2693 19H25.7307C25.3271 19 25 19.3329 25 19.7436V47.2564C25 47.6671 25.3271 48 25.7307 48H43.2693C43.6729 48 44 47.6671 44 47.2564V19.7436Z" fill="white"/>
</g>
<defs>
<clipPath id="clip0_29_289">
<rect width="66" height="54" fill="white"/>
</clipPath>
</defs>
</svg>
