<svg width="25" height="54" viewBox="0 0 25 54" fill="none" xmlns="http://www.w3.org/2000/svg">
<g clip-path="url(#clip0_29_295)">
<path d="M11.7706 48.1009L11.7711 48.5282C11.7716 48.9242 11.5239 49.4565 11.2206 49.7111L10.8811 49.9961C10.2659 49.9924 9.7868 49.9834 9.3759 49.9698C9.4274 49.5995 9.6395 49.169 9.9046 48.9464L11.2181 47.8439C11.5215 47.5892 11.7701 47.7049 11.7706 48.1009V48.1009ZM9.9545 48.2453L11.2287 47.1226C11.5258 46.8608 11.7587 46.3228 11.7463 45.927L11.7328 45.4996C11.7203 45.1038 11.4671 44.9942 11.1699 45.2559L9.8957 46.3786C9.5986 46.6404 9.3657 47.1784 9.3781 47.5742L9.3916 48.0016C9.4041 48.3974 9.6574 48.5071 9.9545 48.2453ZM11.7606 42.8889H10.9784L9.9047 43.7901C9.6014 44.0447 9.3537 44.577 9.3542 44.973L9.3547 45.4002C9.3552 45.7963 9.6038 45.9119 9.9071 45.6573L11.2206 44.5547C11.5239 44.3001 11.7716 43.7678 11.7711 43.3718L11.7706 42.9446C11.7706 42.9219 11.7622 42.9097 11.7606 42.8889V42.8889ZM9.9545 43.089L10.1816 42.8889H9.4009C9.4332 43.2421 9.6708 43.339 9.9545 43.089ZM8.9333 42.8889H8.1975L8.3971 43.0564C8.6725 43.2876 8.8929 43.2008 8.9333 42.8889ZM7.0746 44.5217L8.3488 45.6443C8.646 45.9061 8.8993 45.7965 8.9117 45.4006L8.9251 44.9732C8.9376 44.5774 8.7047 44.0394 8.4076 43.7776L7.3989 42.8889H6.5726C6.5724 42.8928 6.5706 42.8946 6.5705 42.8986L6.5571 43.3261C6.5446 43.7219 6.7775 44.2599 7.0746 44.5217V44.5217ZM7.0861 45.2429C6.7828 44.9883 6.5342 45.104 6.5336 45.5L6.5331 45.9273C6.5326 46.3233 6.7803 46.8556 7.0836 47.1102L8.3971 48.2128C8.7004 48.4674 8.949 48.3517 8.9495 47.9557L8.9501 47.5284C8.9506 47.1324 8.7029 46.6001 8.3996 46.3455L7.0861 45.2429ZM7.1334 47.8112C6.8363 47.5494 6.583 47.659 6.5705 48.0549L6.5571 48.4823C6.5446 48.8781 6.7775 49.4161 7.0746 49.6779L7.2404 49.824C7.8527 49.8809 8.3269 49.9226 8.9061 49.9509C8.8605 49.5836 8.6629 49.1588 8.4076 48.9339L7.1334 47.8112ZM5.576 47.8438L5.1755 48.1799L5.1882 48.2855C5.2648 48.8463 5.4492 49.2071 5.81 49.4443C5.9971 49.1717 6.1293 48.8153 6.1289 48.5282L6.1284 48.1009C6.1279 47.7049 5.8793 47.5892 5.576 47.8438ZM6.1041 45.927L6.0906 45.4996C6.0781 45.1038 5.8249 44.9942 5.5277 45.2559L4.8913 45.8166L5.1 47.5513L5.5866 47.1226C5.8837 46.8608 6.1166 46.3228 6.1041 45.927V45.927ZM6.1158 42.8746C5.8845 42.8644 5.6567 42.8423 5.4324 42.8081L4.5111 43.5814C4.6329 43.8785 4.7035 44.1925 4.733 44.4997L4.8166 45.1943L5.5786 44.5547C5.8819 44.3001 6.1296 43.7678 6.1291 43.3718L6.1286 42.9446C6.1284 42.9161 6.1184 42.9001 6.1158 42.8746V42.8746ZM3.7477 42.3084C3.7452 42.3445 3.7349 42.3838 3.736 42.418L3.7422 42.615C3.9276 42.7565 4.0925 42.8961 4.2053 43.0382C4.2262 43.0645 4.2397 43.0943 4.2591 43.1213C4.2774 43.1078 4.2936 43.1055 4.3124 43.089L4.7826 42.6747C4.4244 42.5812 4.0786 42.4594 3.7477 42.3084V42.3084ZM2.3769 41.4633C2.607 41.7709 2.9525 42.039 3.2965 42.2878C3.2908 42.2142 3.272 42.1358 3.2529 42.0579C2.9443 41.8831 2.6509 41.6851 2.3769 41.4633ZM20.6746 42.3047C21.0204 42.0552 21.3682 41.786 21.6037 41.4777C21.3254 41.7013 21.0284 41.9022 20.7148 42.0774C20.6971 42.1544 20.6798 42.2317 20.6746 42.3047ZM19.2244 42.6729L19.6814 43.0565C19.7062 43.0773 19.7274 43.0807 19.7513 43.0966C19.7652 43.0777 19.7744 43.0567 19.7891 43.0382C19.8982 42.9006 20.0561 42.7655 20.234 42.6286L20.2343 42.3721C20.2343 42.3559 20.228 42.337 20.2272 42.3204C19.9064 42.4653 19.571 42.582 19.2244 42.6729V42.6729ZM17.8597 42.8758C17.8592 42.8848 17.8551 42.8893 17.8548 42.8986L17.8414 43.326C17.8289 43.7218 18.0619 44.2598 18.359 44.5216L19.1726 45.2384L19.2614 44.4997C19.2906 44.1956 19.3602 43.885 19.4795 43.5904L18.588 42.8049C18.3492 42.8421 18.1065 42.8658 17.8597 42.8758V42.8758ZM17.818 45.4999L17.8174 45.9272C17.8169 46.3232 18.0646 46.8555 18.3679 47.1101L18.8943 47.552L19.0985 45.854L18.3704 45.2429C18.0671 44.9882 17.8185 45.1039 17.818 45.4999V45.4999ZM17.9133 48.0158L17.8998 48.4432C17.8909 48.7243 18.0091 49.0739 18.1829 49.3487C18.5165 49.1226 18.7362 48.7966 18.8061 48.2855L18.8303 48.0843L18.4761 47.7722C18.179 47.5104 17.9257 47.62 17.9133 48.0158V48.0158ZM16.8604 47.8438L15.5469 48.9463C15.2791 49.1712 15.0651 49.6085 15.0166 49.9813C15.6903 49.9613 16.2439 49.9192 16.7156 49.8347L16.8629 49.711C17.1662 49.4564 17.4139 48.9241 17.4134 48.5281L17.4128 48.1008C17.4122 47.7049 17.1636 47.5892 16.8604 47.8438V47.8438ZM15.5967 48.2453L16.8709 47.1226C17.1681 46.8608 17.4009 46.3228 17.3885 45.927L17.3751 45.4996C17.3626 45.1038 17.1093 44.9942 16.8122 45.2559L15.538 46.3786C15.2409 46.6404 15.008 47.1784 15.0204 47.5742L15.0339 48.0016C15.0463 48.3974 15.2996 48.5071 15.5967 48.2453V48.2453ZM17.4027 42.8889H16.6205L15.5468 43.7901C15.2435 44.0447 14.9958 44.577 14.9963 44.973L14.9968 45.4002C14.9973 45.7963 15.2459 45.9119 15.5492 45.6573L16.8627 44.5547C17.166 44.3001 17.4137 43.7678 17.4132 43.3718L17.4126 42.9446C17.4127 42.9219 17.4044 42.9097 17.4027 42.8889V42.8889ZM15.5967 43.089L15.8238 42.8889H15.0431C15.0753 43.2421 15.3129 43.339 15.5967 43.089ZM14.5755 42.8889H13.8397L14.0393 43.0564C14.3146 43.2876 14.535 43.2008 14.5755 42.8889ZM12.7168 44.5217L13.991 45.6443C14.2881 45.9061 14.5414 45.7965 14.5539 45.4006L14.5674 44.9732C14.5799 44.5774 14.3469 44.0394 14.0498 43.7776L13.0411 42.8889H12.2147C12.2145 42.8928 12.2127 42.8946 12.2126 42.8986L12.1992 43.326C12.1868 43.7219 12.4197 44.2599 12.7168 44.5217V44.5217ZM12.7283 45.2429C12.425 44.9883 12.1764 45.104 12.1759 45.5L12.1753 45.9273C12.1748 46.3233 12.4225 46.8556 12.7258 47.1102L14.0393 48.2128C14.3426 48.4674 14.5912 48.3517 14.5917 47.9557L14.5923 47.5284C14.5928 47.1324 14.3451 46.6001 14.0418 46.3455L12.7283 45.2429ZM12.7756 47.8112C12.4785 47.5494 12.2251 47.659 12.2127 48.0549L12.1993 48.4823C12.1868 48.8781 12.4197 49.4161 12.7168 49.6779L13.0823 50C13.6264 50.0005 14.1146 49.999 14.5527 49.9921C14.5183 49.6161 14.3147 49.1673 14.0498 48.9339L12.7756 47.8112ZM10.8812 6.91417C10.2661 6.91787 9.7869 6.92687 9.376 6.94047C9.4275 7.31077 9.6396 7.74137 9.9047 7.96387L11.2182 9.06647C11.5215 9.32107 11.7701 9.20537 11.7706 8.80937L11.7711 8.38207C11.7716 7.98607 11.5239 7.45377 11.2206 7.19917L10.8812 6.91417ZM11.1699 11.6543C11.467 11.9161 11.7203 11.8064 11.7328 11.4106L11.7463 10.9832C11.7588 10.5874 11.5258 10.0494 11.2287 9.78757L9.9545 8.66497C9.6574 8.40317 9.4041 8.51277 9.3917 8.90857L9.3782 9.33597C9.3657 9.73177 9.5987 10.2698 9.8958 10.5316L11.1699 11.6543ZM9.9072 11.2529C9.6039 10.9983 9.3553 11.114 9.3548 11.51L9.3543 11.9373C9.3538 12.3333 9.6014 12.8656 9.9048 13.1202L10.9921 14.0329H11.7586C11.7609 14.0082 11.7707 13.993 11.7707 13.9657L11.7712 13.5384C11.7717 13.1424 11.524 12.6101 11.2207 12.3555L9.9072 11.2529ZM9.9545 13.8212C9.6673 13.5681 9.4258 13.6686 9.3985 14.0328H10.1947L9.9545 13.8212ZM8.3971 13.8538L8.1838 14.0328H8.9354C8.8995 13.7106 8.6761 13.6197 8.3971 13.8538ZM8.3488 11.2659L7.0746 12.3886C6.7775 12.6504 6.5446 13.1884 6.5571 13.5842L6.5705 14.0116C6.5707 14.0203 6.5745 14.0244 6.575 14.0328H7.3859L8.4076 13.1326C8.7047 12.8708 8.9376 12.3328 8.9251 11.937L8.9117 11.5096C8.8993 11.1138 8.646 11.0041 8.3488 11.2659ZM8.3971 8.69757L7.0836 9.80007C6.7803 10.0547 6.5326 10.587 6.5331 10.983L6.5336 11.4103C6.5341 11.8063 6.7827 11.922 7.0861 11.6674L8.3996 10.5648C8.7029 10.3102 8.9506 9.77787 8.9501 9.38187L8.9495 8.95457C8.949 8.55857 8.7004 8.44297 8.3971 8.69757V8.69757ZM7.1334 9.09897L8.4076 7.97637C8.6628 7.75147 8.8605 7.32667 8.9061 6.95937C8.3269 6.98777 7.8527 7.02937 7.2404 7.08627L7.0746 7.23227C6.7775 7.49407 6.5446 8.03207 6.5571 8.42797L6.5705 8.85537C6.583 9.25107 6.8363 9.36077 7.1334 9.09897V9.09897ZM5.1883 8.62467L5.1756 8.73027L5.576 9.06637C5.8793 9.32097 6.1279 9.20527 6.1284 8.80927L6.129 8.38207C6.1294 8.09507 5.9972 7.73857 5.8101 7.46597C5.4493 7.70317 5.2649 8.06387 5.1883 8.62467V8.62467ZM6.0906 11.4106L6.1041 10.9832C6.1166 10.5874 5.8836 10.0494 5.5865 9.78757L5.1 9.35887L4.8914 11.0936L5.5278 11.6543C5.8249 11.9161 6.0782 11.8064 6.0906 11.4106ZM4.8166 11.7158L4.733 12.4105C4.7035 12.7178 4.6328 13.0317 4.5111 13.3288L5.444 14.1118C5.6639 14.0788 5.887 14.0573 6.1137 14.0472C6.1171 14.018 6.1284 13.9988 6.1285 13.9655L6.129 13.5382C6.1295 13.1422 5.8818 12.6099 5.5785 12.3553L4.8166 11.7158ZM4.7927 14.2444L4.3124 13.8212C4.2937 13.8047 4.2774 13.8025 4.2591 13.789C4.2397 13.816 4.2261 13.8458 4.2053 13.8721C4.0926 14.0143 3.9276 14.1538 3.7422 14.2953L3.736 14.4923C3.7348 14.5299 3.7458 14.5729 3.7489 14.6128C4.0825 14.4606 4.4313 14.3381 4.7927 14.2444ZM2.3461 15.4796V15.4816C2.6278 15.2506 2.9315 15.0462 3.2505 14.8655C3.2714 14.783 3.2905 14.7003 3.2965 14.6226C2.9396 14.8805 2.5752 15.1571 2.3461 15.4796V15.4796ZM21.6413 15.4721C21.4067 15.1461 21.036 14.8663 20.6746 14.6055C20.6801 14.6826 20.6977 14.7643 20.7171 14.8457C21.0436 15.0282 21.3533 15.2372 21.6413 15.4721ZM19.7892 13.8721C19.7745 13.8536 19.7653 13.8325 19.7514 13.8136C19.7275 13.8295 19.7062 13.833 19.6815 13.8538L19.2141 14.2462C19.5639 14.3373 19.9022 14.4546 20.226 14.6007C20.2272 14.5805 20.2345 14.5578 20.2345 14.5382L20.2342 14.2817C20.0562 14.1448 19.8983 14.0097 19.7892 13.8721ZM17.8414 13.5842L17.8548 14.0116C17.8552 14.0257 17.8611 14.0327 17.8621 14.046C18.1042 14.0559 18.3424 14.079 18.5768 14.115L19.4794 13.3197C19.3601 13.0251 19.2905 12.7145 19.2613 12.4104L19.1724 11.6716L18.3589 12.3885C18.0619 12.6504 17.829 13.1884 17.8414 13.5842V13.5842ZM18.3704 11.6674L19.0985 11.0562L18.8943 9.35817L18.3679 9.80007C18.0646 10.0547 17.8169 10.587 17.8174 10.983L17.818 11.4103C17.8185 11.8063 18.0671 11.922 18.3704 11.6674ZM18.4761 9.13807L18.8303 8.82597L18.8061 8.62477C18.7362 8.11357 18.5165 7.78757 18.1829 7.56147C18.0091 7.83617 17.8908 8.18587 17.8997 8.46707L17.9132 8.89447C17.9257 9.29017 18.179 9.39987 18.4761 9.13807V9.13807ZM16.7156 7.07547C16.2439 6.99097 15.6903 6.94877 15.0166 6.92877C15.0651 7.30167 15.2791 7.73897 15.5469 7.96377L16.8604 9.06637C17.1637 9.32097 17.4123 9.20527 17.4128 8.80927L17.4134 8.38197C17.4139 7.98597 17.1662 7.45367 16.8629 7.19907L16.7156 7.07547ZM16.8121 11.6543C17.1092 11.9161 17.3625 11.8064 17.375 11.4106L17.3884 10.9832C17.4009 10.5874 17.168 10.0494 16.8708 9.78757L15.5966 8.66487C15.2995 8.40307 15.0462 8.51267 15.0337 8.90857L15.0202 9.33597C15.0077 9.73177 15.2407 10.2698 15.5378 10.5316L16.8121 11.6543ZM15.5493 11.2529C15.246 10.9983 14.9974 11.114 14.9969 11.51L14.9964 11.9373C14.9959 12.3333 15.2436 12.8656 15.5469 13.1202L16.6342 14.0329H17.4007C17.403 14.0082 17.4128 13.993 17.4128 13.9657L17.4134 13.5384C17.4139 13.1424 17.1662 12.6101 16.8629 12.3555L15.5493 11.2529ZM15.5967 13.8212C15.3095 13.5681 15.068 13.6686 15.0407 14.0328H15.8369L15.5967 13.8212ZM14.0392 13.8538L13.8259 14.0328H14.5775C14.5416 13.7106 14.3182 13.6197 14.0392 13.8538ZM13.991 11.2659L12.7168 12.3886C12.4197 12.6504 12.1868 13.1884 12.1993 13.5842L12.2127 14.0116C12.2129 14.0203 12.2167 14.0244 12.2172 14.0328H13.0281L14.0498 13.1326C14.3469 12.8708 14.5798 12.3328 14.5674 11.937L14.5539 11.5096C14.5414 11.1138 14.2881 11.0041 13.991 11.2659V11.2659ZM14.0392 8.69757L12.7257 9.80007C12.4224 10.0547 12.1747 10.587 12.1752 10.983L12.1758 11.4103C12.1763 11.8063 12.4249 11.922 12.7282 11.6674L14.0417 10.5648C14.345 10.3102 14.5927 9.77787 14.5922 9.38187L14.5916 8.95457C14.5912 8.55857 14.3426 8.44297 14.0392 8.69757V8.69757ZM12.7756 9.09897L14.0498 7.97637C14.3147 7.74297 14.5183 7.29407 14.5527 6.91817C14.1147 6.91127 13.6266 6.90967 13.0824 6.91027L12.7167 7.23237C12.4196 7.49417 12.1867 8.03217 12.1992 8.42797L12.2126 8.85537C12.2252 9.25107 12.4785 9.36077 12.7756 9.09897V9.09897ZM24.9996 25.5302H24V36.489C24 38.5074 23.0635 40.3049 21.6037 41.4778C21.3254 41.7014 21.0284 41.9023 20.7148 42.0775C20.5567 42.1659 20.3934 42.2455 20.2274 42.3204C19.9064 42.4653 19.571 42.582 19.2245 42.6729C19.0162 42.7275 18.8041 42.7715 18.5881 42.805C18.3493 42.8421 18.1066 42.8659 17.8598 42.8758C17.7729 42.8793 17.6877 42.8889 17.6 42.8889H6.5726H6.4C6.3041 42.8889 6.2108 42.8787 6.1159 42.8746C5.8846 42.8644 5.6568 42.8423 5.4325 42.8081C5.2119 42.7745 4.9953 42.7302 4.7827 42.6747C4.4245 42.5813 4.0787 42.4594 3.7478 42.3084C3.579 42.2313 3.4135 42.1489 3.2529 42.0579C2.9443 41.8831 2.6509 41.6852 2.3769 41.4634C0.9279 40.29 0 38.4987 0 36.489V20.4328C0 18.437 0.9142 16.6552 2.3461 15.4815C2.6278 15.2505 2.9315 15.0461 3.2505 14.8654C3.4122 14.7737 3.5789 14.6904 3.749 14.6128C4.0826 14.4606 4.4314 14.3381 4.7928 14.2445C5.0059 14.1893 5.223 14.1452 5.4441 14.1119C5.664 14.0789 5.8871 14.0574 6.1138 14.0473C6.2093 14.0431 6.3033 14.0328 6.4 14.0328H6.5751H17.6C17.6885 14.0328 17.7746 14.0425 17.8622 14.046C18.1043 14.0559 18.3425 14.079 18.5769 14.115C18.7931 14.1482 19.0055 14.1918 19.214 14.2461C19.5638 14.3372 19.9021 14.4545 20.2259 14.6006C20.3933 14.6761 20.5577 14.7565 20.7171 14.8456C21.0436 15.0282 21.3533 15.2371 21.6413 15.472C23.0801 16.6457 24 18.4313 24 20.4328V20.674H24.9996V25.5302ZM23 25.5302H22.9996V20.6741H23V20.4329C23 18.7127 22.1887 17.1814 20.9318 16.1918C20.6015 15.9318 20.2403 15.7108 19.8547 15.5326C19.3581 15.3032 18.8224 15.1462 18.2587 15.0773C18.0423 15.0508 17.8235 15.0329 17.6001 15.0329H6.4C6.1643 15.0329 5.9338 15.0533 5.706 15.0827C5.1484 15.1547 4.6186 15.3121 4.1274 15.5413C3.7486 15.7181 3.3933 15.936 3.0683 16.1919C1.8113 17.1814 1 18.7127 1 20.4328V36.4889C1 38.2022 1.8046 39.7285 3.0529 40.7185C3.3801 40.978 3.7383 41.1982 4.1203 41.3771C4.6109 41.6068 5.1402 41.7648 5.6972 41.8377C5.9278 41.8679 6.1613 41.8888 6.4 41.8888H17.6C17.8266 41.8888 18.0484 41.8702 18.2677 41.843C18.8308 41.7731 19.3659 41.6156 19.8618 41.3856C20.2506 41.2052 20.6148 40.9819 20.9471 40.7184C22.1954 39.7285 23 38.2022 23 36.489V25.5302Z" fill="white"/>
</g>
<defs>
<clipPath id="clip0_29_295">
<rect width="25" height="54" fill="white"/>
</clipPath>
</defs>
</svg>
