<svg width="63" height="54" viewBox="0 0 63 54" fill="none" xmlns="http://www.w3.org/2000/svg">
<g clip-path="url(#clip0_29_298)">
<path d="M25.1251 9.23535H25.7501C25.9133 9.23438 26.075 9.26555 26.2262 9.32711C26.3773 9.38866 26.5149 9.47939 26.6309 9.5941C26.747 9.70881 26.8393 9.84526 26.9027 9.99566C26.966 10.1461 26.9991 10.3075 27.0001 10.4707V30.2353C27.0001 31.5614 27.5269 32.8332 28.4645 33.7709C29.4022 34.7086 30.674 35.2353 32.0001 35.2353C33.3262 35.2353 34.5979 34.7086 35.5356 33.7709C36.4733 32.8332 37.0001 31.5614 37.0001 30.2353V10.4707C37.0001 9.78835 37.0001 9.23535 38.2501 9.23535H38.8751C38.9568 9.23639 39.038 9.22118 39.1139 9.19061C39.1897 9.16004 39.2587 9.11471 39.3169 9.05725C39.3751 8.99979 39.4213 8.93135 39.4529 8.8559C39.4844 8.78044 39.5006 8.69948 39.5006 8.6177C39.5006 8.53592 39.4844 8.45496 39.4529 8.3795C39.4213 8.30405 39.3751 8.23561 39.3169 8.17815C39.2587 8.12069 39.1897 8.07536 39.1139 8.04479C39.038 8.01422 38.9568 7.99901 38.8751 8.00005H25.1251C25.0433 7.99901 24.9621 8.01422 24.8863 8.04479C24.8104 8.07536 24.7414 8.12069 24.6832 8.17815C24.625 8.23561 24.5788 8.30405 24.5473 8.3795C24.5157 8.45496 24.4995 8.53592 24.4995 8.6177C24.4995 8.69948 24.5157 8.78044 24.5473 8.8559C24.5788 8.93135 24.625 8.99979 24.6832 9.05725C24.7414 9.11471 24.8104 9.16004 24.8863 9.19061C24.9621 9.22118 25.0433 9.23639 25.1251 9.23535V9.23535ZM32.0001 15.4119C32.2438 15.4147 32.4812 15.4896 32.6824 15.6271C32.8836 15.7646 33.0397 15.9585 33.131 16.1845C33.2222 16.4105 33.2446 16.6584 33.1953 16.8971C33.146 17.1358 33.0272 17.3546 32.8538 17.5259C32.6805 17.6972 32.4603 17.8134 32.2211 17.8599C31.9819 17.9064 31.7342 17.8811 31.5093 17.7871C31.2844 17.6932 31.0924 17.5348 30.9573 17.332C30.8222 17.1291 30.7501 16.8909 30.7501 16.6472C30.751 16.484 30.7841 16.3226 30.8475 16.1722C30.9108 16.0218 31.0031 15.8853 31.1192 15.7706C31.2353 15.6559 31.3728 15.5652 31.524 15.5036C31.6751 15.4421 31.8369 15.4109 32.0001 15.4119V15.4119ZM32.0001 20.3529C32.2438 20.3558 32.4812 20.4307 32.6824 20.5682C32.8836 20.7057 33.0397 20.8997 33.131 21.1256C33.2222 21.3516 33.2446 21.5995 33.1953 21.8382C33.146 22.0769 33.0272 22.2957 32.8538 22.467C32.6805 22.6383 32.4603 22.7545 32.2211 22.801C31.9819 22.8475 31.7342 22.8222 31.5093 22.7282C31.2844 22.6343 31.0924 22.4759 30.9573 22.2731C30.8222 22.0702 30.7501 21.832 30.7501 21.5882C30.752 21.2587 30.8848 20.9434 31.1192 20.7117C31.3537 20.4801 31.6705 20.351 32.0001 20.3529V20.3529ZM32.0001 25.2941C32.2438 25.297 32.4812 25.3719 32.6824 25.5094C32.8836 25.6469 33.0397 25.8409 33.131 26.0668C33.2222 26.2928 33.2446 26.5407 33.1953 26.7794C33.146 27.0181 33.0272 27.2369 32.8538 27.4082C32.6805 27.5795 32.4603 27.6957 32.2211 27.7422C31.9819 27.7887 31.7342 27.7634 31.5093 27.6694C31.2844 27.5755 31.0924 27.4171 30.9573 27.2143C30.8222 27.0114 30.7501 26.7732 30.7501 26.5294C30.752 26.1999 30.8848 25.8846 31.1192 25.6529C31.3537 25.4213 31.6705 25.2922 32.0001 25.2941V25.2941ZM38.8751 48.7648H38.2501C37.0001 48.7648 37.0001 48.2117 37.0001 47.5294V33.903C36.4195 34.6816 35.6652 35.3139 34.7971 35.7495C33.9291 36.185 32.9713 36.4118 32.0001 36.4118C31.0289 36.4118 30.0711 36.185 29.203 35.7495C28.335 35.3139 27.5806 34.6816 27.0001 33.903V47.5294C26.9991 47.6926 26.966 47.854 26.9027 48.0044C26.8393 48.1548 26.747 48.2913 26.6309 48.406C26.5149 48.5207 26.3773 48.6114 26.2262 48.673C26.075 48.7345 25.9133 48.7657 25.7501 48.7648H25.1251C25.0433 48.7637 24.9621 48.7789 24.8863 48.8095C24.8104 48.8401 24.7414 48.8854 24.6832 48.9428C24.625 49.0003 24.5788 49.0687 24.5473 49.1442C24.5157 49.2197 24.4995 49.3006 24.4995 49.3824C24.4995 49.4642 24.5157 49.5451 24.5473 49.6206C24.5788 49.6961 24.625 49.7645 24.6832 49.8219C24.7414 49.8794 24.8104 49.9247 24.8863 49.9553C24.9621 49.9859 25.0433 50.0011 25.1251 50H38.8751C38.9568 50.0011 39.038 49.9859 39.1139 49.9553C39.1897 49.9247 39.2587 49.8794 39.3169 49.8219C39.3751 49.7645 39.4213 49.6961 39.4529 49.6206C39.4844 49.5451 39.5006 49.4642 39.5006 49.3824C39.5006 49.3006 39.4844 49.2197 39.4529 49.1442C39.4213 49.0687 39.3751 49.0003 39.3169 48.9428C39.2587 48.8854 39.1897 48.8401 39.1139 48.8095C39.038 48.7789 38.9568 48.7637 38.8751 48.7648V48.7648Z" fill="white"/>
<path d="M62 22.9694V20.7257C61.9988 20.0572 61.8251 19.4004 61.4955 18.8189C61.166 18.2374 60.6918 17.7508 60.119 17.4063L60.1231 17.3908C59.5242 17.1295 59.0027 16.7182 58.6092 16.1965C58.2157 15.6749 57.9634 15.0605 57.8767 14.4129L57.44 10.6271C57.3037 9.58847 57.1334 9.43517 55.5328 9.09457C54.0233 8.90687 52.5047 8.80267 50.9837 8.78247C49.4627 8.80267 47.9441 8.90687 46.4346 9.09457C44.834 9.43517 44.6637 9.58847 44.5275 10.6271L44.0905 14.4129C44.011 15.0584 43.7652 15.6722 43.3773 16.1942C42.9893 16.7162 42.4725 17.1285 41.8773 17.3908L41.8807 17.4067C41.308 17.7512 40.8339 18.2377 40.5044 18.8192C40.1749 19.4006 40.0012 20.0573 40 20.7257V37.9335C40.0015 38.6121 40.181 39.2784 40.5205 39.866C40.86 40.4535 41.3476 40.9418 41.9348 41.282L41.9323 41.2973C42.5259 41.5806 43.0364 42.0122 43.4144 42.5505C43.7924 43.0888 44.0251 43.7155 44.09 44.3701L44.527 48.1558C44.6632 49.1945 44.8335 49.3478 46.4341 49.6883C47.9436 49.8759 49.4624 49.98 50.9834 50.0001C52.5044 49.9799 54.023 49.8756 55.5325 49.6879C57.1331 49.3474 57.3034 49.1941 57.4397 48.1554L57.8767 44.3697C57.9603 43.7078 58.2102 43.0779 58.603 42.5386C58.9958 41.9994 59.5188 41.5684 60.1231 41.2859L60.1138 41.2559C60.688 40.9118 61.1635 40.425 61.494 39.8428C61.8245 39.2607 61.9988 38.6029 62 37.9335V26.9694H63V22.9694H62ZM61 26.9694V37.9335C61 38.7016 60.6949 39.4382 60.1518 39.9814C59.6087 40.5246 58.8721 40.8299 58.104 40.8301H43.8961C43.128 40.8299 42.3914 40.5247 41.8482 39.9815C41.3051 39.4383 41 38.7016 41 37.9335V20.7257C41.0106 19.9609 41.3191 19.2304 41.86 18.6897C42.4008 18.1489 43.1313 17.8405 43.8961 17.8301H58.104C58.8688 17.8405 59.5993 18.1489 60.1401 18.6897C60.681 19.2305 60.9895 19.9609 61 20.7257V26.9694ZM56.3764 48.4242C56.0479 48.5452 55.7097 48.6379 55.3654 48.7011C53.9112 48.8802 52.4484 48.98 50.9834 49.0001C49.5184 48.9801 48.0556 48.8802 46.6015 48.7011C46.2572 48.6379 45.9189 48.5452 45.5904 48.4242C45.5573 48.2983 45.5339 48.1701 45.5204 48.0407L45.0858 44.2779C44.9985 43.3847 44.6574 42.5351 44.1028 41.8296H57.9105C57.3381 42.5201 56.9809 43.3634 56.8833 44.255L56.4481 48.025C56.4343 48.1597 56.4103 48.2931 56.3764 48.4242V48.4242ZM45.5905 10.3584C45.919 10.2373 46.2573 10.1446 46.6016 10.0815C48.0557 9.90214 49.5184 9.80232 50.9834 9.78247C52.4484 9.80251 53.9112 9.90232 55.3654 10.0815C55.7097 10.1447 56.0479 10.2373 56.3764 10.3584C56.4096 10.4842 56.433 10.6124 56.4464 10.7418L56.8811 14.5047C56.9679 15.3592 57.3072 16.1686 57.8557 16.8296H44.1293C44.6662 16.1724 44.998 15.3719 45.0836 14.5276L45.5187 10.7576C45.5325 10.6229 45.5565 10.4894 45.5905 10.3584V10.3584Z" fill="white"/>
<path d="M11.7706 48.1008L11.7712 48.5281C11.7466 48.9784 11.5496 49.402 11.2212 49.711L10.8812 49.9959C10.2661 49.9922 9.78691 49.9832 9.37601 49.9696C9.4328 49.579 9.61896 49.2187 9.90471 48.9463L11.2182 47.8437C11.5215 47.5891 11.77 47.7048 11.7706 48.1008ZM9.95451 48.2452L11.2287 47.1225C11.5495 46.806 11.735 46.3774 11.7463 45.9269L11.7328 45.5C11.7203 45.1042 11.467 44.9945 11.1699 45.2563L9.89581 46.3785C9.57496 46.695 9.3894 47.1236 9.37821 47.5741L9.39171 48.0015C9.40411 48.3973 9.65741 48.507 9.95451 48.2452V48.2452ZM11.7606 42.8888H10.9783L9.90471 43.79C9.57623 44.099 9.37928 44.5226 9.35471 44.9729V45.4002C9.35531 45.7962 9.60391 45.9119 9.90721 45.6573L11.2207 44.5547C11.5491 44.2457 11.7461 43.8221 11.7707 43.3718L11.7701 42.9445C11.7679 42.9258 11.7647 42.9072 11.7606 42.8888V42.8888ZM9.95451 43.0888L10.1816 42.8888H9.40091C9.43321 43.242 9.67081 43.3389 9.95451 43.0889V43.0888ZM8.93331 42.8888H8.19751L8.39751 43.0564C8.67251 43.2875 8.89291 43.2007 8.93331 42.8888ZM7.07461 44.5216L8.34881 45.6442C8.64601 45.906 8.89881 45.7963 8.91171 45.4005L8.92521 44.9732C8.91402 44.5227 8.72851 44.0941 8.40771 43.7775L7.39891 42.8888H6.57261L6.57061 42.8988L6.55711 43.3262C6.56833 43.7767 6.75384 44.2052 7.07461 44.5216V44.5216ZM7.08611 45.2428C6.78281 44.9881 6.53421 45.1038 6.53361 45.4998V45.9271C6.55822 46.3774 6.75516 46.801 7.08361 47.11L8.39711 48.2126C8.70041 48.4672 8.94901 48.3515 8.94951 47.9555L8.95011 47.5282C8.92543 47.0779 8.72846 46.6544 8.40001 46.3453L7.08611 45.2428ZM7.13341 47.8111C6.83631 47.5493 6.58341 47.659 6.57061 48.0548L6.55711 48.4822C6.56828 48.9327 6.75379 49.3613 7.07461 49.6778L7.24041 49.8239C7.85271 49.8808 8.32691 49.9224 8.90611 49.9508C8.8573 49.566 8.68198 49.2082 8.40771 48.9338L7.13341 47.8111ZM5.57601 47.8437L5.17601 48.1798L5.18871 48.2854C5.19711 48.5132 5.25746 48.736 5.36514 48.9368C5.47282 49.1376 5.62499 49.3112 5.81001 49.4442C6.00026 49.1749 6.11078 48.8574 6.12891 48.5281V48.1008C6.12791 47.7048 5.87931 47.5891 5.57601 47.8437V47.8437ZM6.10411 45.9269L6.09061 45.5C6.07821 45.1042 5.82491 44.9945 5.52781 45.2563L4.89141 45.8171L5.10001 47.5512L5.58651 47.1225C5.90737 46.8061 6.09292 46.3775 6.10411 45.9269V45.9269ZM6.11581 42.8745C5.88699 42.8646 5.65886 42.8424 5.43241 42.808L4.51111 43.5813C4.62948 43.8751 4.70424 44.1846 4.73301 44.5L4.81661 45.1946L5.57861 44.5546C5.90703 44.2456 6.10396 43.822 6.12861 43.3717V42.9444C6.12582 42.9209 6.12154 42.8975 6.11581 42.8745ZM3.74771 42.3082C3.74521 42.3443 3.73491 42.3837 3.73601 42.4182L3.74221 42.6151C3.91275 42.7374 4.0682 42.8795 4.20531 43.0383C4.22611 43.0647 4.23971 43.0944 4.25911 43.1215C4.27744 43.1117 4.29523 43.1009 4.31241 43.0892L4.78241 42.6749C4.42757 42.5828 4.08137 42.4601 3.74771 42.3082V42.3082ZM2.37691 41.4632C2.64191 41.7813 2.95183 42.059 3.29691 42.2877C3.28852 42.21 3.27397 42.1331 3.25341 42.0577C2.94536 41.8841 2.6522 41.6852 2.37691 41.4632V41.4632ZM20.6746 42.3046C21.0217 42.0742 21.3345 41.7958 21.6037 41.4777C21.3247 41.7022 21.0273 41.9029 20.7148 42.0777C20.6957 42.1522 20.6823 42.2281 20.6746 42.3046V42.3046ZM19.2246 42.6728L19.6816 43.0564C19.704 43.0714 19.7274 43.0847 19.7516 43.0964C19.7656 43.0775 19.7748 43.0564 19.7895 43.0379C19.9213 42.8844 20.0706 42.7467 20.2344 42.6279V42.3715C20.2344 42.3553 20.2281 42.3364 20.2274 42.3198C19.9035 42.4653 19.568 42.5834 19.2244 42.6728H19.2246ZM17.8599 42.8757C17.8599 42.8847 17.8554 42.8892 17.8551 42.8985L17.8416 43.3259C17.8529 43.7765 18.0384 44.2051 18.3592 44.5216L19.1728 45.2384L19.2616 44.4997C19.2903 44.1876 19.3639 43.8812 19.48 43.59L18.5885 42.8045C18.3472 42.8421 18.104 42.8658 17.86 42.8757H17.8599ZM17.818 45.5L17.8174 45.9273C17.8421 46.3776 18.039 46.8012 18.3674 47.1102L18.8938 47.5521L19.0981 45.8541L18.3699 45.243C18.0671 44.9881 17.8185 45.1038 17.818 45.5V45.5ZM17.9133 48.0159L17.8998 48.4433C17.9081 48.7657 18.0061 49.0793 18.1829 49.3489C18.3597 49.2296 18.5074 49.0721 18.6153 48.8881C18.7232 48.704 18.7884 48.4982 18.8062 48.2856L18.8304 48.0844L18.4761 47.7723C18.179 47.51 17.9257 47.62 17.9133 48.0157V48.0159ZM16.8604 47.8439L15.5468 48.9465C15.2583 49.2217 15.0715 49.5866 15.0168 49.9815C15.5859 49.9737 16.1538 49.9247 16.7158 49.8349L16.8632 49.7112C17.1916 49.4022 17.3886 48.9786 17.4132 48.5283L17.4126 48.101C17.4122 47.7048 17.1636 47.5891 16.86 47.8437L16.8604 47.8439ZM15.5967 48.2454L16.8708 47.1227C17.1917 46.8063 17.3772 46.3777 17.3884 45.9271L17.375 45.5C17.3625 45.1042 17.1092 44.9945 16.8121 45.2563L15.5379 46.379C15.2171 46.6955 15.0316 47.1241 15.0203 47.5746L15.0338 48.002C15.0463 48.3973 15.3 48.507 15.5967 48.2452V48.2454ZM17.4027 42.889H16.6205L15.5468 43.7902C15.2184 44.0993 15.0215 44.5228 14.9968 44.9731L14.9974 45.4004C14.9979 45.7964 15.2465 45.9121 15.5498 45.6575L16.8634 44.5549C17.1918 44.2459 17.3888 43.8223 17.4134 43.372L17.4128 42.9447C17.4104 42.9259 17.407 42.9073 17.4027 42.8888V42.889ZM15.5967 43.089L15.8238 42.889H15.0431C15.0753 43.242 15.3129 43.3389 15.5967 43.0889V43.089ZM14.5755 42.889H13.84L14.0395 43.0566C14.3146 43.2875 14.535 43.2007 14.5755 42.8888V42.889ZM12.7168 44.5218L13.991 45.6444C14.2881 45.9062 14.541 45.7965 14.5539 45.4007L14.5674 44.9734C14.5561 44.5229 14.3706 44.0943 14.0498 43.7777L13.0411 42.889H12.2148L12.2127 42.899L12.1993 43.3264C12.2106 43.7768 12.3961 44.2052 12.7168 44.5216V44.5218ZM12.7283 45.243C12.4249 44.9883 12.1763 45.104 12.1758 45.5L12.1752 45.9273C12.1999 46.3776 12.3968 46.8012 12.7252 47.1102L14.0387 48.2128C14.3421 48.4674 14.5907 48.3517 14.5912 47.9557L14.5918 47.5284C14.5672 47.0781 14.3702 46.6546 14.0418 46.3455L12.7283 45.243ZM12.7756 47.8113C12.4785 47.5495 12.2256 47.6592 12.2127 48.055L12.1993 48.4824C12.2105 48.9329 12.396 49.3616 12.7168 49.678L13.0823 50C13.6264 50.0005 14.1147 49.999 14.5523 49.9921C14.5114 49.5921 14.3338 49.2183 14.0494 48.9339L12.7756 47.8113ZM10.8812 6.77003C10.2661 6.77373 9.78691 6.78273 9.37601 6.79633C9.43269 7.18712 9.61886 7.5476 9.90471 7.82003L11.2182 8.92263C11.5215 9.17723 11.7701 9.06163 11.7706 8.66563L11.7712 8.23833C11.7465 7.78801 11.5496 7.36444 11.2212 7.05533L10.8812 6.77003ZM11.1699 11.51C11.467 11.7718 11.7199 11.6621 11.7328 11.2663L11.7463 10.839C11.7351 10.3885 11.5495 9.95987 11.2287 9.64333L9.95451 8.52103C9.65741 8.25923 9.40451 8.36883 9.39171 8.76463L9.37821 9.19203C9.38938 9.64259 9.57493 10.0712 9.89581 10.3877L11.1699 11.51ZM9.90721 11.1085C9.60391 10.854 9.35531 10.9696 9.35471 11.3656V11.7929C9.37929 12.2433 9.57624 12.6669 9.90471 12.9759L10.992 13.8885H11.7585C11.7639 13.8664 11.7679 13.844 11.7706 13.8213L11.7712 13.394C11.7466 12.9437 11.5496 12.5202 11.2212 12.2111L9.90721 11.1085ZM9.95451 13.6769C9.66731 13.4238 9.42581 13.5243 9.39851 13.8885H10.1947L9.95451 13.6769ZM8.39711 13.71L8.18381 13.889H8.93541C8.90001 13.5666 8.67611 13.4757 8.39711 13.71ZM8.34881 11.1221L7.07461 12.2446C6.75384 12.5611 6.56833 12.9896 6.55711 13.44L6.57061 13.8674C6.57061 13.8761 6.57461 13.8803 6.57511 13.8886H7.38591L8.40771 12.9886C8.72853 12.6721 8.91405 12.2435 8.92521 11.793L8.91171 11.3656C8.89931 10.97 8.64601 10.86 8.34881 11.1219V11.1221ZM8.39711 8.55373L7.08361 9.65613C6.75516 9.96516 6.55822 10.3887 6.53361 10.839V11.2663C6.53421 11.6623 6.78281 11.778 7.08611 11.5234L8.40001 10.4208C8.72842 10.1118 8.92535 9.68822 8.95001 9.23793V8.81063C8.94901 8.41463 8.70001 8.29903 8.39711 8.55353V8.55373ZM7.13341 8.95503L8.40771 7.83243C8.68194 7.55801 8.85725 7.20029 8.90611 6.81543C8.32691 6.84383 7.85271 6.88543 7.24041 6.94233L7.07461 7.08833C6.75377 7.40484 6.56825 7.83348 6.55711 8.28403L6.57061 8.71133C6.58301 9.10713 6.83631 9.21683 7.13341 8.95503V8.95503ZM5.18831 8.48073L5.17561 8.58633L5.57561 8.92243C5.87891 9.17703 6.12751 9.06143 6.12811 8.66543V8.23813C6.11023 7.90895 5.99999 7.59146 5.81001 7.32203C5.62491 7.455 5.47267 7.62853 5.36492 7.82935C5.25716 8.03018 5.19676 8.25298 5.18831 8.48073ZM6.09061 11.2666L6.10411 10.8393C6.09294 10.3888 5.90739 9.96012 5.58651 9.64363L5.10001 9.21493L4.89141 10.95L5.52781 11.5107C5.82491 11.7721 6.07821 11.6624 6.09061 11.2666V11.2666ZM4.81661 11.5718L4.73301 12.2665C4.70421 12.5818 4.62945 12.8912 4.51111 13.1848L5.44401 13.9679C5.66606 13.9347 5.8897 13.9131 6.11401 13.9033C6.12089 13.8765 6.12584 13.8492 6.12881 13.8216V13.3943C6.10416 12.944 5.90723 12.5205 5.57881 12.2114L4.81661 11.5718ZM4.79271 14.1L4.31271 13.6768C4.29555 13.6651 4.27776 13.6544 4.25941 13.6446C4.24001 13.6716 4.22641 13.7014 4.20561 13.7277C4.06855 13.8866 3.91309 14.0287 3.74251 14.1509L3.73631 14.3479C3.73521 14.3855 3.74631 14.4285 3.74921 14.4679C4.08568 14.3152 4.43484 14.1921 4.79271 14.1V14.1ZM2.34611 15.3356V15.3375C2.62944 15.1068 2.93197 14.9007 3.25041 14.7214C3.27252 14.6419 3.28791 14.5606 3.29641 14.4785C2.93686 14.7129 2.61622 15.0021 2.34611 15.3356V15.3356ZM21.6413 15.3281C21.3655 14.9913 21.0394 14.6991 20.6746 14.4615C20.6824 14.5425 20.6966 14.6228 20.7171 14.7015C21.0428 14.8831 21.3521 15.0928 21.6413 15.3281V15.3281ZM19.7892 13.7281C19.7745 13.7096 19.7653 13.6881 19.7513 13.6696C19.7271 13.6813 19.7037 13.6947 19.6813 13.7096L19.2139 14.102C19.5606 14.1914 19.8991 14.31 20.2258 14.4565C20.227 14.4365 20.2343 14.4136 20.2343 14.394V14.1375C20.0704 14.0189 19.9211 13.8815 19.7892 13.7281V13.7281ZM17.8414 13.44L17.8549 13.8674C17.8549 13.8815 17.8611 13.8885 17.8622 13.9019C18.1015 13.9116 18.3402 13.9346 18.5769 13.9709L19.4796 13.1756C19.3635 12.8846 19.29 12.5783 19.2614 12.2663L19.1725 11.5275L18.359 12.2444C18.0382 12.5609 17.8527 12.9895 17.8414 13.44V13.44ZM18.3704 11.5232L19.0986 10.912L18.8943 9.21403L18.3679 9.65593C18.0395 9.96499 17.8426 10.3885 17.8179 10.8388L17.8185 11.2661C17.8185 11.6623 18.0671 11.778 18.37 11.5234L18.3704 11.5232ZM18.4761 8.99393L18.83 8.68203L18.8058 8.48073C18.788 8.26818 18.7228 8.06232 18.615 7.87831C18.5071 7.69429 18.3594 7.5368 18.1826 7.41743C18.006 7.68713 17.9081 8.00075 17.9 8.32303L17.9135 8.75043C17.9257 9.14623 18.179 9.25593 18.4761 8.99413V8.99393ZM16.7156 6.93153C16.1535 6.84177 15.5857 6.79274 15.0165 6.78483C15.0711 7.17981 15.258 7.54463 15.5465 7.81983L16.86 8.92243C17.1632 9.17703 17.4118 9.06143 17.4124 8.66543L17.413 8.23813C17.3883 7.78781 17.1914 7.36424 16.863 7.05513L16.7156 6.93153ZM16.8121 11.5103C17.1092 11.7721 17.3621 11.6624 17.375 11.2666L17.3884 10.8393C17.3772 10.3888 17.1917 9.96012 16.8708 9.64363L15.5967 8.52103C15.2996 8.25923 15.0467 8.36883 15.0338 8.76463L15.02 9.19203C15.0313 9.64257 15.2168 10.0712 15.5376 10.3877L16.8121 11.5103ZM15.5493 11.1088C15.246 10.8543 14.9974 10.9699 14.9969 11.3659L14.9963 11.7932C15.021 12.2435 15.2179 12.6671 15.5463 12.9762L16.6337 13.8888H17.4001C17.4055 13.8667 17.4096 13.8443 17.4123 13.8216L17.4129 13.3943C17.3883 12.944 17.1913 12.5205 16.8629 12.2114L15.5493 11.1088ZM15.5967 13.6772C15.3094 13.4241 15.068 13.5246 15.0406 13.8888H15.8369L15.5967 13.6772ZM14.0392 13.7098L13.826 13.8888H14.5776C14.5416 13.5666 14.3182 13.4757 14.0392 13.71V13.7098ZM13.991 11.1219L12.7168 12.2446C12.396 12.5611 12.2105 12.9897 12.1993 13.4402L12.2127 13.8676C12.2127 13.8763 12.2167 13.8805 12.2172 13.8888H13.0281L14.0498 12.9888C14.3706 12.6723 14.5561 12.2437 14.5674 11.7932L14.5539 11.3658C14.5414 10.97 14.2881 10.86 13.991 11.1219V11.1219ZM14.0392 8.55353L12.7257 9.65613C12.3973 9.96519 12.2004 10.3887 12.1757 10.839L12.1763 11.2663C12.1763 11.6623 12.4254 11.778 12.7288 11.5234L14.0423 10.4208C14.3707 10.1118 14.5677 9.68822 14.5923 9.23793L14.5917 8.81063C14.5912 8.41463 14.3426 8.29903 14.0392 8.55353ZM12.7756 8.95503L14.05 7.83243C14.3344 7.54799 14.512 7.17423 14.5529 6.77413C14.1149 6.76723 13.6268 6.76563 13.0829 6.76623L12.7172 7.08833C12.3964 7.40484 12.2109 7.83348 12.1997 8.28403L12.2131 8.71133C12.2252 9.10713 12.4785 9.21683 12.7756 8.95503ZM25 20.53H24V20.2887C24.0001 19.1494 23.6958 18.0308 23.1186 17.0486C22.5415 16.0663 21.7124 15.2561 20.7171 14.7016C20.5577 14.6125 20.3932 14.5316 20.2259 14.4566C19.7004 14.2217 19.1458 14.0584 18.5769 13.971C18.3402 13.9347 18.1015 13.9117 17.8622 13.902C17.7745 13.8984 17.6885 13.8887 17.6 13.8887H6.40001C6.30331 13.8887 6.20931 13.8987 6.11371 13.9032C5.29654 13.9388 4.49378 14.1308 3.74891 14.4687C3.57891 14.5463 3.41211 14.6296 3.25041 14.7213C2.26261 15.2766 1.44072 16.0852 0.869391 17.0638C0.298064 18.0424 -0.00203455 19.1557 1.03814e-05 20.2888V36.4888C-3.85892e-05 37.6221 0.301158 38.735 0.872747 39.7135C1.44434 40.6921 2.26577 41.5011 3.25291 42.0577C3.41351 42.1486 3.57891 42.2311 3.74771 42.3077C4.2836 42.5511 4.85052 42.7194 5.43241 42.8077C5.65886 42.8421 5.88699 42.8643 6.11581 42.8742C6.21081 42.8783 6.30401 42.8885 6.40001 42.8885H17.6C17.6877 42.8885 17.7729 42.8785 17.86 42.8754C18.1039 42.8657 18.3471 42.842 18.5883 42.8046C19.1539 42.7168 19.7052 42.5538 20.2277 42.32C20.3937 42.245 20.557 42.1654 20.7151 42.0771C21.7094 41.5211 22.5377 40.7104 23.115 39.7283C23.6923 38.7462 23.9978 37.6281 24 36.4889V25.53H25V20.53ZM23 36.4889C22.9901 37.918 22.418 39.2858 21.4075 40.2964C20.3969 41.307 19.0291 41.8791 17.6 41.8889H6.40001C6.16488 41.8872 5.93012 41.8701 5.69721 41.8378C4.39941 41.666 3.20804 41.0291 2.34421 40.0454C1.48039 39.0617 1.00277 37.7981 1.00001 36.4889V20.2889C1.01092 18.8601 1.58335 17.4929 2.59369 16.4826C3.60403 15.4723 4.97121 14.8998 6.40001 14.8889H17.6C19.0308 14.8934 20.4018 15.4637 21.4135 16.4754C22.4252 17.4872 22.9956 18.8581 23 20.2889V20.53V25.53V36.4889Z" fill="white"/>
</g>
<defs>
<clipPath id="clip0_29_298">
<rect width="63" height="54" fill="white"/>
</clipPath>
</defs>
</svg>
